M48
; DRILL file {KiCad (6.0.7)} date Sun 18 Sep 2022 09:45:11 PM PDT
; FORMAT={-:-/ absolute / inch / decimal}
; #@! TF.CreationDate,2022-09-18T21:45:11-07:00
; #@! TF.GenerationSoftware,Kicad,Pcbnew,(6.0.7)
; #@! TF.FileFunction,Plated,1,2,PTH
FMAT,2
INCH
; #@! TA.AperFunction,Plated,PTH,ViaDrill
T1C0.0157
; #@! TA.AperFunction,Plated,PTH,ComponentDrill
T2C0.0276
; #@! TA.AperFunction,Plated,PTH,ComponentDrill
T3C0.0315
; #@! TA.AperFunction,Plated,PTH,ComponentDrill
T4C0.0335
; #@! TA.AperFunction,Plated,PTH,ComponentDrill
T5C0.0394
; #@! TA.AperFunction,Plated,PTH,ComponentDrill
T6C0.0402
%
G90
G05
T1
X4.4965Y-3.7
X4.5Y-4.5
X4.525Y-3.775
X4.55Y-3.85
X4.575Y-4.025
X4.5965Y-4.1
X4.6215Y-4.175
X4.65Y-4.25
X4.8Y-3.0
X4.8Y-3.8
X4.9465Y-4.625
X4.975Y-4.7
X5.0Y-4.775
X5.4Y-3.8
X6.15Y-4.35
X6.225Y-2.75
X6.25Y-1.75
X6.25Y-2.05
X6.36Y-4.08
X6.75Y-1.75
X7.0Y-2.0
X7.0Y-2.5
X7.0Y-3.0
X7.0Y-4.5
X7.25Y-1.75
X7.25Y-2.25
X7.25Y-2.75
X7.25Y-3.75
X7.25Y-4.25
X7.25Y-4.75
X7.5Y-2.0
X7.5Y-2.5
X7.5Y-3.0
X7.5Y-3.5
X7.5Y-4.5
X7.75Y-1.75
X7.75Y-2.75
X7.9Y-4.2
X7.95Y-3.3
X7.95Y-3.85
X8.0Y-2.0
X8.0Y-3.0
X8.05Y-2.45
X8.2Y-3.25
X8.25Y-1.75
X8.25Y-2.25
X8.25Y-4.25
X8.25Y-4.75
T2
X6.05Y-2.2
X6.05Y-2.4
X7.8976Y-3.5
X7.8976Y-3.7
T3
X5.8498Y-3.7
X5.8498Y-3.8
X5.8498Y-3.9
X5.8498Y-4.0
X5.8498Y-4.1
X5.8498Y-4.2
X5.8498Y-4.3
X5.8498Y-4.4
X5.8498Y-4.5
X5.8498Y-4.6
X5.8498Y-4.7
X5.8498Y-4.8
X5.8502Y-1.9
X5.8502Y-2.0
X5.8502Y-2.1
X5.8502Y-2.2
X5.8502Y-2.3
X5.8502Y-2.4
X5.8502Y-2.5
X5.8502Y-2.6
X5.8502Y-2.7
X5.8502Y-2.8
X6.1004Y-3.1504
X6.1004Y-3.2504
X6.1004Y-3.3504
X6.1004Y-3.4504
X6.1547Y-3.6
X6.4004Y-3.1504
X6.4004Y-3.2504
X6.4004Y-3.3504
X6.4004Y-3.4504
X6.4498Y-3.7
X6.4498Y-3.8
X6.4498Y-3.9
X6.4498Y-4.0
X6.4498Y-4.1
X6.4498Y-4.2
X6.4498Y-4.3
X6.4498Y-4.4
X6.4498Y-4.5
X6.4498Y-4.6
X6.4498Y-4.7
X6.4498Y-4.8
X6.45Y-3.6
X6.6502Y-1.9
X6.6502Y-2.0
X6.6502Y-2.1
X6.6502Y-2.2
X6.6502Y-2.3
X6.6502Y-2.4
X6.6502Y-2.5
X6.6502Y-2.6
X6.6502Y-2.7
X6.6502Y-2.8
X6.8547Y-3.6
X6.9Y-3.25
X7.1Y-3.25
X7.15Y-3.6
X7.15Y-3.7
X7.15Y-3.8
X7.15Y-3.9
X7.15Y-4.0
X7.15Y-4.1
X7.15Y-4.2
X7.15Y-4.3
X7.15Y-4.4
X7.4024Y-2.2
X7.4024Y-3.3
X7.45Y-3.7
X7.45Y-3.8
X7.45Y-3.9
X7.45Y-4.0
X7.45Y-4.1
X7.45Y-4.2
X7.45Y-4.3
X7.45Y-4.4
X7.5024Y-2.3
X7.6976Y-2.2
X7.6976Y-3.3
X7.75Y-4.3
X7.75Y-4.5953
X7.7976Y-2.3
X7.85Y-4.4
X7.85Y-4.6953
X8.05Y-4.0547
X8.05Y-4.35
T4
X7.7988Y-3.2
X7.7988Y-3.3
X7.7988Y-3.4
X7.7988Y-3.5
X7.7988Y-3.6
X7.7988Y-3.7
X7.7988Y-3.8
X7.7988Y-3.9
X7.7988Y-4.0
X8.1488Y-3.65
X8.1488Y-3.75
X8.1488Y-3.85
X8.1488Y-3.95
X8.1488Y-4.05
X8.1488Y-4.15
X8.1488Y-4.25
X8.1488Y-4.35
X8.1488Y-4.45
T5
X4.15Y-1.7
X4.15Y-1.8
X4.15Y-1.9
X4.15Y-2.0
X4.15Y-2.1
X4.15Y-2.2
X4.15Y-2.3
X4.15Y-2.4
X4.15Y-2.5
X4.15Y-2.6
X4.15Y-2.7
X4.15Y-2.8
X4.15Y-2.9
X4.15Y-3.0
X4.15Y-3.1
X4.15Y-3.2
X4.15Y-3.3
X4.15Y-3.4
X4.15Y-3.5
X4.15Y-3.6
X5.35Y-4.0
X5.35Y-4.1
X5.35Y-4.2
X5.35Y-4.3
X5.35Y-4.4
X5.35Y-4.5
X5.35Y-4.6
X5.35Y-4.7
X5.45Y-1.7
X5.45Y-1.8
X5.45Y-1.9
X5.45Y-2.0
X5.45Y-2.1
X5.45Y-2.2
X5.45Y-2.3
X5.45Y-2.4
X5.45Y-2.5
X5.45Y-2.6
X5.45Y-2.7
X5.45Y-2.8
X5.45Y-2.9
X5.45Y-3.0
X5.45Y-3.1
X5.45Y-3.2
X5.45Y-3.3
X5.45Y-3.4
X5.45Y-3.5
X5.45Y-3.6
X5.65Y-3.7
X5.65Y-3.8
X5.65Y-3.9
X5.65Y-4.0
X5.65Y-4.1
X5.65Y-4.2
X5.65Y-4.3
X5.65Y-4.4
X5.65Y-4.5
X5.65Y-4.6
X5.65Y-4.7
X5.65Y-4.8
X5.6502Y-1.9
X5.6502Y-2.0
X5.6502Y-2.1
X5.6502Y-2.2
X5.6502Y-2.3
X5.6502Y-2.4
X5.6502Y-2.5
X5.6502Y-2.6
X5.6502Y-2.7
X5.6502Y-2.8
X6.65Y-3.7
X6.65Y-3.8
X6.65Y-3.9
X6.65Y-4.0
X6.65Y-4.1
X6.65Y-4.2
X6.65Y-4.3
X6.65Y-4.4
X6.65Y-4.5
X6.65Y-4.6
X6.65Y-4.7
X6.65Y-4.8
X6.8502Y-1.9
X6.8502Y-2.0
X6.8502Y-2.1
X6.8502Y-2.2
X6.8502Y-2.3
X6.8502Y-2.4
X6.8502Y-2.5
X6.8502Y-2.6
X6.8502Y-2.7
X6.8502Y-2.8
X6.95Y-3.7
X6.95Y-3.8
X6.95Y-3.9
X6.95Y-4.0
X6.95Y-4.1
X6.95Y-4.2
X6.95Y-4.3
X6.95Y-4.4
X7.18Y-1.685
X7.18Y-1.785
X7.18Y-1.885
X7.18Y-1.985
X7.65Y-3.7
X7.65Y-3.8
X7.65Y-3.9
X7.65Y-4.0
X7.65Y-4.1
X7.65Y-4.2
X7.65Y-4.3
X7.65Y-4.4
T6
X4.45Y-1.7
X4.45Y-1.8
X4.45Y-1.9
X4.45Y-2.0
X4.45Y-2.1
X4.45Y-2.2
X4.45Y-2.3
X4.45Y-2.4
X4.45Y-2.5
X4.45Y-2.6
X4.45Y-2.7
X4.45Y-2.8
X4.45Y-2.9
X4.45Y-3.0
X4.45Y-3.1
X4.45Y-3.2
X4.45Y-3.3
X4.45Y-3.4
X4.45Y-3.5
X4.45Y-3.6
X4.7Y-3.5909
X4.8Y-3.5909
X4.9Y-3.5909
X5.15Y-1.7
X5.15Y-1.8
X5.15Y-1.9
X5.15Y-2.0
X5.15Y-2.1
X5.15Y-2.2
X5.15Y-2.3
X5.15Y-2.4
X5.15Y-2.5
X5.15Y-2.6
X5.15Y-2.7
X5.15Y-2.8
X5.15Y-2.9
X5.15Y-3.0
X5.15Y-3.1
X5.15Y-3.2
X5.15Y-3.3
X5.15Y-3.4
X5.15Y-3.5
X5.15Y-3.6
T0
M30
