%TF.GenerationSoftware,KiCad,Pcbnew,(6.0.7)*%
%TF.CreationDate,2022-09-18T20:43:17-07:00*%
%TF.ProjectId,module_board,6d6f6475-6c65-45f6-926f-6172642e6b69,rev?*%
%TF.SameCoordinates,Original*%
%TF.FileFunction,Legend,Top*%
%TF.FilePolarity,Positive*%
%FSLAX46Y46*%
G04 Gerber Fmt 4.6, Leading zero omitted, Abs format (unit mm)*
G04 Created by KiCad (PCBNEW (6.0.7)) date 2022-09-18 20:43:17*
%MOMM*%
%LPD*%
G01*
G04 APERTURE LIST*
%ADD10C,0.150000*%
%ADD11C,0.120000*%
G04 APERTURE END LIST*
D10*
%TO.C,U4*%
X155448095Y-107402380D02*
X155448095Y-108211904D01*
X155495714Y-108307142D01*
X155543333Y-108354761D01*
X155638571Y-108402380D01*
X155829047Y-108402380D01*
X155924285Y-108354761D01*
X155971904Y-108307142D01*
X156019523Y-108211904D01*
X156019523Y-107402380D01*
X156924285Y-107735714D02*
X156924285Y-108402380D01*
X156686190Y-107354761D02*
X156448095Y-108069047D01*
X157067142Y-108069047D01*
%TO.C,C1*%
X159913333Y-91797142D02*
X159865714Y-91844761D01*
X159722857Y-91892380D01*
X159627619Y-91892380D01*
X159484761Y-91844761D01*
X159389523Y-91749523D01*
X159341904Y-91654285D01*
X159294285Y-91463809D01*
X159294285Y-91320952D01*
X159341904Y-91130476D01*
X159389523Y-91035238D01*
X159484761Y-90940000D01*
X159627619Y-90892380D01*
X159722857Y-90892380D01*
X159865714Y-90940000D01*
X159913333Y-90987619D01*
X160865714Y-91892380D02*
X160294285Y-91892380D01*
X160580000Y-91892380D02*
X160580000Y-90892380D01*
X160484761Y-91035238D01*
X160389523Y-91130476D01*
X160294285Y-91178095D01*
%TO.C,U2*%
X157988095Y-83272380D02*
X157988095Y-84081904D01*
X158035714Y-84177142D01*
X158083333Y-84224761D01*
X158178571Y-84272380D01*
X158369047Y-84272380D01*
X158464285Y-84224761D01*
X158511904Y-84177142D01*
X158559523Y-84081904D01*
X158559523Y-83272380D01*
X158988095Y-83367619D02*
X159035714Y-83320000D01*
X159130952Y-83272380D01*
X159369047Y-83272380D01*
X159464285Y-83320000D01*
X159511904Y-83367619D01*
X159559523Y-83462857D01*
X159559523Y-83558095D01*
X159511904Y-83700952D01*
X158940476Y-84272380D01*
X159559523Y-84272380D01*
%TO.C,J7*%
X168576666Y-91102380D02*
X168576666Y-91816666D01*
X168529047Y-91959523D01*
X168433809Y-92054761D01*
X168290952Y-92102380D01*
X168195714Y-92102380D01*
X168957619Y-91102380D02*
X169624285Y-91102380D01*
X169195714Y-92102380D01*
%TO.C,J6*%
X143176666Y-91102380D02*
X143176666Y-91816666D01*
X143129047Y-91959523D01*
X143033809Y-92054761D01*
X142890952Y-92102380D01*
X142795714Y-92102380D01*
X144081428Y-91102380D02*
X143890952Y-91102380D01*
X143795714Y-91150000D01*
X143748095Y-91197619D01*
X143652857Y-91340476D01*
X143605238Y-91530952D01*
X143605238Y-91911904D01*
X143652857Y-92007142D01*
X143700476Y-92054761D01*
X143795714Y-92102380D01*
X143986190Y-92102380D01*
X144081428Y-92054761D01*
X144129047Y-92007142D01*
X144176666Y-91911904D01*
X144176666Y-91673809D01*
X144129047Y-91578571D01*
X144081428Y-91530952D01*
X143986190Y-91483333D01*
X143795714Y-91483333D01*
X143700476Y-91530952D01*
X143652857Y-91578571D01*
X143605238Y-91673809D01*
%TO.C,J2*%
X121586666Y-110577380D02*
X121586666Y-111291666D01*
X121539047Y-111434523D01*
X121443809Y-111529761D01*
X121300952Y-111577380D01*
X121205714Y-111577380D01*
X122015238Y-110672619D02*
X122062857Y-110625000D01*
X122158095Y-110577380D01*
X122396190Y-110577380D01*
X122491428Y-110625000D01*
X122539047Y-110672619D01*
X122586666Y-110767857D01*
X122586666Y-110863095D01*
X122539047Y-111005952D01*
X121967619Y-111577380D01*
X122586666Y-111577380D01*
%TO.C,J4*%
X143181666Y-44942380D02*
X143181666Y-45656666D01*
X143134047Y-45799523D01*
X143038809Y-45894761D01*
X142895952Y-45942380D01*
X142800714Y-45942380D01*
X144086428Y-45275714D02*
X144086428Y-45942380D01*
X143848333Y-44894761D02*
X143610238Y-45609047D01*
X144229285Y-45609047D01*
%TO.C,U3*%
X157993095Y-60412380D02*
X157993095Y-61221904D01*
X158040714Y-61317142D01*
X158088333Y-61364761D01*
X158183571Y-61412380D01*
X158374047Y-61412380D01*
X158469285Y-61364761D01*
X158516904Y-61317142D01*
X158564523Y-61221904D01*
X158564523Y-60412380D01*
X158945476Y-60412380D02*
X159564523Y-60412380D01*
X159231190Y-60793333D01*
X159374047Y-60793333D01*
X159469285Y-60840952D01*
X159516904Y-60888571D01*
X159564523Y-60983809D01*
X159564523Y-61221904D01*
X159516904Y-61317142D01*
X159469285Y-61364761D01*
X159374047Y-61412380D01*
X159088333Y-61412380D01*
X158993095Y-61364761D01*
X158945476Y-61317142D01*
%TO.C,J5*%
X173661666Y-44942380D02*
X173661666Y-45656666D01*
X173614047Y-45799523D01*
X173518809Y-45894761D01*
X173375952Y-45942380D01*
X173280714Y-45942380D01*
X174614047Y-44942380D02*
X174137857Y-44942380D01*
X174090238Y-45418571D01*
X174137857Y-45370952D01*
X174233095Y-45323333D01*
X174471190Y-45323333D01*
X174566428Y-45370952D01*
X174614047Y-45418571D01*
X174661666Y-45513809D01*
X174661666Y-45751904D01*
X174614047Y-45847142D01*
X174566428Y-45894761D01*
X174471190Y-45942380D01*
X174233095Y-45942380D01*
X174137857Y-45894761D01*
X174090238Y-45847142D01*
%TO.C,U1*%
X121158095Y-66762380D02*
X121158095Y-67571904D01*
X121205714Y-67667142D01*
X121253333Y-67714761D01*
X121348571Y-67762380D01*
X121539047Y-67762380D01*
X121634285Y-67714761D01*
X121681904Y-67667142D01*
X121729523Y-67571904D01*
X121729523Y-66762380D01*
X122729523Y-67762380D02*
X122158095Y-67762380D01*
X122443809Y-67762380D02*
X122443809Y-66762380D01*
X122348571Y-66905238D01*
X122253333Y-67000476D01*
X122158095Y-67048095D01*
X134017722Y-63900592D02*
X133936910Y-63927529D01*
X133856097Y-64008341D01*
X133802223Y-64116091D01*
X133802223Y-64223841D01*
X133829160Y-64304653D01*
X133909972Y-64439340D01*
X133990784Y-64520152D01*
X134125471Y-64600964D01*
X134206284Y-64627902D01*
X134314033Y-64627902D01*
X134421783Y-64574027D01*
X134475658Y-64520152D01*
X134529532Y-64412402D01*
X134529532Y-64358528D01*
X134340971Y-64169966D01*
X134233221Y-64277715D01*
X134825844Y-64169966D02*
X134260158Y-63604280D01*
X134475658Y-63388781D01*
X134556470Y-63361844D01*
X134610345Y-63361844D01*
X134691157Y-63388781D01*
X134771969Y-63469593D01*
X134798906Y-63550406D01*
X134798906Y-63604280D01*
X134771969Y-63685093D01*
X134556470Y-63900592D01*
X134852781Y-63119407D02*
X134852781Y-63065532D01*
X134879719Y-62984720D01*
X135014406Y-62850033D01*
X135095218Y-62823096D01*
X135149093Y-62823096D01*
X135229905Y-62850033D01*
X135283780Y-62903908D01*
X135337654Y-63011658D01*
X135337654Y-63658155D01*
X135687841Y-63307969D01*
X135310717Y-62553722D02*
X135687841Y-62176598D01*
X136011089Y-62984720D01*
X134758375Y-69253435D02*
X134300439Y-69172622D01*
X134435126Y-69576683D02*
X133869441Y-69010998D01*
X134084940Y-68795499D01*
X134165752Y-68768561D01*
X134219627Y-68768561D01*
X134300439Y-68795499D01*
X134381251Y-68876311D01*
X134408189Y-68957123D01*
X134408189Y-69010998D01*
X134381251Y-69091810D01*
X134165752Y-69307309D01*
X134435126Y-68445312D02*
X134893062Y-68903248D01*
X134973874Y-68930186D01*
X135027749Y-68930186D01*
X135108561Y-68903248D01*
X135216311Y-68795499D01*
X135243248Y-68714687D01*
X135243248Y-68660812D01*
X135216311Y-68579999D01*
X134758375Y-68122064D01*
X135593435Y-68418375D02*
X135027749Y-67852690D01*
X135916683Y-68095126D01*
X135350998Y-67529441D01*
X107909722Y-76590592D02*
X107828910Y-76617529D01*
X107748097Y-76698341D01*
X107694223Y-76806091D01*
X107694223Y-76913841D01*
X107721160Y-76994653D01*
X107801972Y-77129340D01*
X107882784Y-77210152D01*
X108017471Y-77290964D01*
X108098284Y-77317902D01*
X108206033Y-77317902D01*
X108313783Y-77264027D01*
X108367658Y-77210152D01*
X108421532Y-77102402D01*
X108421532Y-77048528D01*
X108232971Y-76859966D01*
X108125221Y-76967715D01*
X108717844Y-76859966D02*
X108152158Y-76294280D01*
X108367658Y-76078781D01*
X108448470Y-76051844D01*
X108502345Y-76051844D01*
X108583157Y-76078781D01*
X108663969Y-76159593D01*
X108690906Y-76240406D01*
X108690906Y-76294280D01*
X108663969Y-76375093D01*
X108448470Y-76590592D01*
X109579841Y-75997969D02*
X109256592Y-76321218D01*
X109418216Y-76159593D02*
X108852531Y-75593908D01*
X108879468Y-75728595D01*
X108879468Y-75836345D01*
X108852531Y-75917157D01*
X109364341Y-75082097D02*
X109418216Y-75028223D01*
X109499028Y-75001285D01*
X109552903Y-75001285D01*
X109633715Y-75028223D01*
X109768402Y-75109035D01*
X109903089Y-75243722D01*
X109983902Y-75378409D01*
X110010839Y-75459221D01*
X110010839Y-75513096D01*
X109983902Y-75593908D01*
X109930027Y-75647783D01*
X109849215Y-75674720D01*
X109795340Y-75674720D01*
X109714528Y-75647783D01*
X109579841Y-75566971D01*
X109445154Y-75432284D01*
X109364341Y-75297597D01*
X109337404Y-75216784D01*
X109337404Y-75162910D01*
X109364341Y-75082097D01*
X108333096Y-45831218D02*
X108252284Y-45858155D01*
X108171471Y-45938967D01*
X108117597Y-46046717D01*
X108117597Y-46154467D01*
X108144534Y-46235279D01*
X108225346Y-46369966D01*
X108306158Y-46450778D01*
X108440845Y-46531590D01*
X108521658Y-46558528D01*
X108629407Y-46558528D01*
X108737157Y-46504653D01*
X108791032Y-46450778D01*
X108844906Y-46343028D01*
X108844906Y-46289154D01*
X108656345Y-46100592D01*
X108548595Y-46208341D01*
X109141218Y-46100592D02*
X108575532Y-45534906D01*
X108791032Y-45319407D01*
X108871844Y-45292470D01*
X108925719Y-45292470D01*
X109006531Y-45319407D01*
X109087343Y-45400219D01*
X109114280Y-45481032D01*
X109114280Y-45534906D01*
X109087343Y-45615719D01*
X108871844Y-45831218D01*
X110003215Y-45238595D02*
X109679966Y-45561844D01*
X109841590Y-45400219D02*
X109275905Y-44834534D01*
X109302842Y-44969221D01*
X109302842Y-45076971D01*
X109275905Y-45157783D01*
X107763722Y-81670592D02*
X107682910Y-81697529D01*
X107602097Y-81778341D01*
X107548223Y-81886091D01*
X107548223Y-81993841D01*
X107575160Y-82074653D01*
X107655972Y-82209340D01*
X107736784Y-82290152D01*
X107871471Y-82370964D01*
X107952284Y-82397902D01*
X108060033Y-82397902D01*
X108167783Y-82344027D01*
X108221658Y-82290152D01*
X108275532Y-82182402D01*
X108275532Y-82128528D01*
X108086971Y-81939966D01*
X107979221Y-82047715D01*
X108571844Y-81939966D02*
X108006158Y-81374280D01*
X108221658Y-81158781D01*
X108302470Y-81131844D01*
X108356345Y-81131844D01*
X108437157Y-81158781D01*
X108517969Y-81239593D01*
X108544906Y-81320406D01*
X108544906Y-81374280D01*
X108517969Y-81455093D01*
X108302470Y-81670592D01*
X109433841Y-81077969D02*
X109110592Y-81401218D01*
X109272216Y-81239593D02*
X108706531Y-80673908D01*
X108733468Y-80808595D01*
X108733468Y-80916345D01*
X108706531Y-80997157D01*
X109137529Y-80350659D02*
X109137529Y-80296784D01*
X109164467Y-80215972D01*
X109299154Y-80081285D01*
X109379966Y-80054348D01*
X109433841Y-80054348D01*
X109514653Y-80081285D01*
X109568528Y-80135160D01*
X109622402Y-80242910D01*
X109622402Y-80889407D01*
X109972589Y-80539221D01*
X133840473Y-46379966D02*
X134594720Y-46757089D01*
X134217597Y-46002842D01*
X134917969Y-46379966D02*
X135025719Y-46326091D01*
X135160406Y-46191404D01*
X135187343Y-46110592D01*
X135187343Y-46056717D01*
X135160406Y-45975905D01*
X135106531Y-45922030D01*
X135025719Y-45895093D01*
X134971844Y-45895093D01*
X134891032Y-45922030D01*
X134756345Y-46002842D01*
X134675532Y-46029780D01*
X134621658Y-46029780D01*
X134540845Y-46002842D01*
X134486971Y-45948967D01*
X134460033Y-45868155D01*
X134460033Y-45814280D01*
X134486971Y-45733468D01*
X134621658Y-45598781D01*
X134729407Y-45544906D01*
X135348967Y-45464094D02*
X135618341Y-45733468D01*
X134864094Y-45356345D02*
X135348967Y-45464094D01*
X135241218Y-44979221D01*
X135941590Y-45356345D02*
X136049340Y-45302470D01*
X136184027Y-45167783D01*
X136210964Y-45086971D01*
X136210964Y-45033096D01*
X136184027Y-44952284D01*
X136130152Y-44898409D01*
X136049340Y-44871471D01*
X135995465Y-44871471D01*
X135914653Y-44898409D01*
X135779966Y-44979221D01*
X135699154Y-45006158D01*
X135645279Y-45006158D01*
X135564467Y-44979221D01*
X135510592Y-44925346D01*
X135483654Y-44844534D01*
X135483654Y-44790659D01*
X135510592Y-44709847D01*
X135645279Y-44575160D01*
X135753028Y-44521285D01*
X107863722Y-89290592D02*
X107782910Y-89317529D01*
X107702097Y-89398341D01*
X107648223Y-89506091D01*
X107648223Y-89613841D01*
X107675160Y-89694653D01*
X107755972Y-89829340D01*
X107836784Y-89910152D01*
X107971471Y-89990964D01*
X108052284Y-90017902D01*
X108160033Y-90017902D01*
X108267783Y-89964027D01*
X108321658Y-89910152D01*
X108375532Y-89802402D01*
X108375532Y-89748528D01*
X108186971Y-89559966D01*
X108079221Y-89667715D01*
X108671844Y-89559966D02*
X108106158Y-88994280D01*
X108321658Y-88778781D01*
X108402470Y-88751844D01*
X108456345Y-88751844D01*
X108537157Y-88778781D01*
X108617969Y-88859593D01*
X108644906Y-88940406D01*
X108644906Y-88994280D01*
X108617969Y-89075093D01*
X108402470Y-89290592D01*
X109533841Y-88697969D02*
X109210592Y-89021218D01*
X109372216Y-88859593D02*
X108806531Y-88293908D01*
X108833468Y-88428595D01*
X108833468Y-88536345D01*
X108806531Y-88617157D01*
X109641590Y-87835972D02*
X110018714Y-88213096D01*
X109291404Y-87755160D02*
X109560778Y-88293908D01*
X109910964Y-87943722D01*
X108406158Y-73808155D02*
X108325346Y-73835093D01*
X108244534Y-73915905D01*
X108190659Y-74023654D01*
X108190659Y-74131404D01*
X108217597Y-74212216D01*
X108298409Y-74346903D01*
X108379221Y-74427715D01*
X108513908Y-74508528D01*
X108594720Y-74535465D01*
X108702470Y-74535465D01*
X108810219Y-74481590D01*
X108864094Y-74427715D01*
X108917969Y-74319966D01*
X108917969Y-74266091D01*
X108729407Y-74077529D01*
X108621658Y-74185279D01*
X109214280Y-74077529D02*
X108648595Y-73511844D01*
X109537529Y-73754280D01*
X108971844Y-73188595D01*
X109806903Y-73484906D02*
X109241218Y-72919221D01*
X109375905Y-72784534D01*
X109483654Y-72730659D01*
X109591404Y-72730659D01*
X109672216Y-72757597D01*
X109806903Y-72838409D01*
X109887715Y-72919221D01*
X109968528Y-73053908D01*
X109995465Y-73134720D01*
X109995465Y-73242470D01*
X109941590Y-73350219D01*
X109806903Y-73484906D01*
X134017722Y-71510592D02*
X133936910Y-71537529D01*
X133856097Y-71618341D01*
X133802223Y-71726091D01*
X133802223Y-71833841D01*
X133829160Y-71914653D01*
X133909972Y-72049340D01*
X133990784Y-72130152D01*
X134125471Y-72210964D01*
X134206284Y-72237902D01*
X134314033Y-72237902D01*
X134421783Y-72184027D01*
X134475658Y-72130152D01*
X134529532Y-72022402D01*
X134529532Y-71968528D01*
X134340971Y-71779966D01*
X134233221Y-71887715D01*
X134825844Y-71779966D02*
X134260158Y-71214280D01*
X134475658Y-70998781D01*
X134556470Y-70971844D01*
X134610345Y-70971844D01*
X134691157Y-70998781D01*
X134771969Y-71079593D01*
X134798906Y-71160406D01*
X134798906Y-71214280D01*
X134771969Y-71295093D01*
X134556470Y-71510592D01*
X134852781Y-70729407D02*
X134852781Y-70675532D01*
X134879719Y-70594720D01*
X135014406Y-70460033D01*
X135095218Y-70433096D01*
X135149093Y-70433096D01*
X135229905Y-70460033D01*
X135283780Y-70513908D01*
X135337654Y-70621658D01*
X135337654Y-71268155D01*
X135687841Y-70917969D01*
X135391529Y-70190659D02*
X135391529Y-70136784D01*
X135418467Y-70055972D01*
X135553154Y-69921285D01*
X135633966Y-69894348D01*
X135687841Y-69894348D01*
X135768653Y-69921285D01*
X135822528Y-69975160D01*
X135876402Y-70082910D01*
X135876402Y-70729407D01*
X136226589Y-70379221D01*
X134017722Y-76600592D02*
X133936910Y-76627529D01*
X133856097Y-76708341D01*
X133802223Y-76816091D01*
X133802223Y-76923841D01*
X133829160Y-77004653D01*
X133909972Y-77139340D01*
X133990784Y-77220152D01*
X134125471Y-77300964D01*
X134206284Y-77327902D01*
X134314033Y-77327902D01*
X134421783Y-77274027D01*
X134475658Y-77220152D01*
X134529532Y-77112402D01*
X134529532Y-77058528D01*
X134340971Y-76869966D01*
X134233221Y-76977715D01*
X134825844Y-76869966D02*
X134260158Y-76304280D01*
X134475658Y-76088781D01*
X134556470Y-76061844D01*
X134610345Y-76061844D01*
X134691157Y-76088781D01*
X134771969Y-76169593D01*
X134798906Y-76250406D01*
X134798906Y-76304280D01*
X134771969Y-76385093D01*
X134556470Y-76600592D01*
X134852781Y-75819407D02*
X134852781Y-75765532D01*
X134879719Y-75684720D01*
X135014406Y-75550033D01*
X135095218Y-75523096D01*
X135149093Y-75523096D01*
X135229905Y-75550033D01*
X135283780Y-75603908D01*
X135337654Y-75711658D01*
X135337654Y-76358155D01*
X135687841Y-76007969D01*
X136226589Y-75469221D02*
X135903340Y-75792470D01*
X136064964Y-75630845D02*
X135499279Y-75065160D01*
X135526216Y-75199847D01*
X135526216Y-75307597D01*
X135499279Y-75388409D01*
X108433096Y-63621218D02*
X108352284Y-63648155D01*
X108271471Y-63728967D01*
X108217597Y-63836717D01*
X108217597Y-63944467D01*
X108244534Y-64025279D01*
X108325346Y-64159966D01*
X108406158Y-64240778D01*
X108540845Y-64321590D01*
X108621658Y-64348528D01*
X108729407Y-64348528D01*
X108837157Y-64294653D01*
X108891032Y-64240778D01*
X108944906Y-64133028D01*
X108944906Y-64079154D01*
X108756345Y-63890592D01*
X108648595Y-63998341D01*
X109241218Y-63890592D02*
X108675532Y-63324906D01*
X108891032Y-63109407D01*
X108971844Y-63082470D01*
X109025719Y-63082470D01*
X109106531Y-63109407D01*
X109187343Y-63190219D01*
X109214280Y-63271032D01*
X109214280Y-63324906D01*
X109187343Y-63405719D01*
X108971844Y-63621218D01*
X109483654Y-62516784D02*
X109375905Y-62624534D01*
X109348967Y-62705346D01*
X109348967Y-62759221D01*
X109375905Y-62893908D01*
X109456717Y-63028595D01*
X109672216Y-63244094D01*
X109753028Y-63271032D01*
X109806903Y-63271032D01*
X109887715Y-63244094D01*
X109995465Y-63136345D01*
X110022402Y-63055532D01*
X110022402Y-63001658D01*
X109995465Y-62920845D01*
X109860778Y-62786158D01*
X109779966Y-62759221D01*
X109726091Y-62759221D01*
X109645279Y-62786158D01*
X109537529Y-62893908D01*
X109510592Y-62974720D01*
X109510592Y-63028595D01*
X109537529Y-63109407D01*
X134017722Y-84210592D02*
X133936910Y-84237529D01*
X133856097Y-84318341D01*
X133802223Y-84426091D01*
X133802223Y-84533841D01*
X133829160Y-84614653D01*
X133909972Y-84749340D01*
X133990784Y-84830152D01*
X134125471Y-84910964D01*
X134206284Y-84937902D01*
X134314033Y-84937902D01*
X134421783Y-84884027D01*
X134475658Y-84830152D01*
X134529532Y-84722402D01*
X134529532Y-84668528D01*
X134340971Y-84479966D01*
X134233221Y-84587715D01*
X134825844Y-84479966D02*
X134260158Y-83914280D01*
X134475658Y-83698781D01*
X134556470Y-83671844D01*
X134610345Y-83671844D01*
X134691157Y-83698781D01*
X134771969Y-83779593D01*
X134798906Y-83860406D01*
X134798906Y-83914280D01*
X134771969Y-83995093D01*
X134556470Y-84210592D01*
X135687841Y-83617969D02*
X135364592Y-83941218D01*
X135526216Y-83779593D02*
X134960531Y-83213908D01*
X134987468Y-83348595D01*
X134987468Y-83456345D01*
X134960531Y-83537157D01*
X135687841Y-82971471D02*
X135607028Y-82998409D01*
X135553154Y-82998409D01*
X135472341Y-82971471D01*
X135445404Y-82944534D01*
X135418467Y-82863722D01*
X135418467Y-82809847D01*
X135445404Y-82729035D01*
X135553154Y-82621285D01*
X135633966Y-82594348D01*
X135687841Y-82594348D01*
X135768653Y-82621285D01*
X135795590Y-82648223D01*
X135822528Y-82729035D01*
X135822528Y-82782910D01*
X135795590Y-82863722D01*
X135687841Y-82971471D01*
X135660903Y-83052284D01*
X135660903Y-83106158D01*
X135687841Y-83186971D01*
X135795590Y-83294720D01*
X135876402Y-83321658D01*
X135930277Y-83321658D01*
X136011089Y-83294720D01*
X136118839Y-83186971D01*
X136145776Y-83106158D01*
X136145776Y-83052284D01*
X136118839Y-82971471D01*
X136011089Y-82863722D01*
X135930277Y-82836784D01*
X135876402Y-82836784D01*
X135795590Y-82863722D01*
X108333096Y-50921218D02*
X108252284Y-50948155D01*
X108171471Y-51028967D01*
X108117597Y-51136717D01*
X108117597Y-51244467D01*
X108144534Y-51325279D01*
X108225346Y-51459966D01*
X108306158Y-51540778D01*
X108440845Y-51621590D01*
X108521658Y-51648528D01*
X108629407Y-51648528D01*
X108737157Y-51594653D01*
X108791032Y-51540778D01*
X108844906Y-51433028D01*
X108844906Y-51379154D01*
X108656345Y-51190592D01*
X108548595Y-51298341D01*
X109141218Y-51190592D02*
X108575532Y-50624906D01*
X108791032Y-50409407D01*
X108871844Y-50382470D01*
X108925719Y-50382470D01*
X109006531Y-50409407D01*
X109087343Y-50490219D01*
X109114280Y-50571032D01*
X109114280Y-50624906D01*
X109087343Y-50705719D01*
X108871844Y-50921218D01*
X109168155Y-50140033D02*
X109168155Y-50086158D01*
X109195093Y-50005346D01*
X109329780Y-49870659D01*
X109410592Y-49843722D01*
X109464467Y-49843722D01*
X109545279Y-49870659D01*
X109599154Y-49924534D01*
X109653028Y-50032284D01*
X109653028Y-50678781D01*
X110003215Y-50328595D01*
X134017722Y-81670592D02*
X133936910Y-81697529D01*
X133856097Y-81778341D01*
X133802223Y-81886091D01*
X133802223Y-81993841D01*
X133829160Y-82074653D01*
X133909972Y-82209340D01*
X133990784Y-82290152D01*
X134125471Y-82370964D01*
X134206284Y-82397902D01*
X134314033Y-82397902D01*
X134421783Y-82344027D01*
X134475658Y-82290152D01*
X134529532Y-82182402D01*
X134529532Y-82128528D01*
X134340971Y-81939966D01*
X134233221Y-82047715D01*
X134825844Y-81939966D02*
X134260158Y-81374280D01*
X134475658Y-81158781D01*
X134556470Y-81131844D01*
X134610345Y-81131844D01*
X134691157Y-81158781D01*
X134771969Y-81239593D01*
X134798906Y-81320406D01*
X134798906Y-81374280D01*
X134771969Y-81455093D01*
X134556470Y-81670592D01*
X135687841Y-81077969D02*
X135364592Y-81401218D01*
X135526216Y-81239593D02*
X134960531Y-80673908D01*
X134987468Y-80808595D01*
X134987468Y-80916345D01*
X134960531Y-80997157D01*
X135957215Y-80808595D02*
X136064964Y-80700845D01*
X136091902Y-80620033D01*
X136091902Y-80566158D01*
X136064964Y-80431471D01*
X135984152Y-80296784D01*
X135768653Y-80081285D01*
X135687841Y-80054348D01*
X135633966Y-80054348D01*
X135553154Y-80081285D01*
X135445404Y-80189035D01*
X135418467Y-80269847D01*
X135418467Y-80323722D01*
X135445404Y-80404534D01*
X135580091Y-80539221D01*
X135660903Y-80566158D01*
X135714778Y-80566158D01*
X135795590Y-80539221D01*
X135903340Y-80431471D01*
X135930277Y-80350659D01*
X135930277Y-80296784D01*
X135903340Y-80215972D01*
X134017722Y-79130592D02*
X133936910Y-79157529D01*
X133856097Y-79238341D01*
X133802223Y-79346091D01*
X133802223Y-79453841D01*
X133829160Y-79534653D01*
X133909972Y-79669340D01*
X133990784Y-79750152D01*
X134125471Y-79830964D01*
X134206284Y-79857902D01*
X134314033Y-79857902D01*
X134421783Y-79804027D01*
X134475658Y-79750152D01*
X134529532Y-79642402D01*
X134529532Y-79588528D01*
X134340971Y-79399966D01*
X134233221Y-79507715D01*
X134825844Y-79399966D02*
X134260158Y-78834280D01*
X134475658Y-78618781D01*
X134556470Y-78591844D01*
X134610345Y-78591844D01*
X134691157Y-78618781D01*
X134771969Y-78699593D01*
X134798906Y-78780406D01*
X134798906Y-78834280D01*
X134771969Y-78915093D01*
X134556470Y-79130592D01*
X134852781Y-78349407D02*
X134852781Y-78295532D01*
X134879719Y-78214720D01*
X135014406Y-78080033D01*
X135095218Y-78053096D01*
X135149093Y-78053096D01*
X135229905Y-78080033D01*
X135283780Y-78133908D01*
X135337654Y-78241658D01*
X135337654Y-78888155D01*
X135687841Y-78537969D01*
X135472341Y-77622097D02*
X135526216Y-77568223D01*
X135607028Y-77541285D01*
X135660903Y-77541285D01*
X135741715Y-77568223D01*
X135876402Y-77649035D01*
X136011089Y-77783722D01*
X136091902Y-77918409D01*
X136118839Y-77999221D01*
X136118839Y-78053096D01*
X136091902Y-78133908D01*
X136038027Y-78187783D01*
X135957215Y-78214720D01*
X135903340Y-78214720D01*
X135822528Y-78187783D01*
X135687841Y-78106971D01*
X135553154Y-77972284D01*
X135472341Y-77837597D01*
X135445404Y-77756784D01*
X135445404Y-77702910D01*
X135472341Y-77622097D01*
X108406158Y-48408155D02*
X108325346Y-48435093D01*
X108244534Y-48515905D01*
X108190659Y-48623654D01*
X108190659Y-48731404D01*
X108217597Y-48812216D01*
X108298409Y-48946903D01*
X108379221Y-49027715D01*
X108513908Y-49108528D01*
X108594720Y-49135465D01*
X108702470Y-49135465D01*
X108810219Y-49081590D01*
X108864094Y-49027715D01*
X108917969Y-48919966D01*
X108917969Y-48866091D01*
X108729407Y-48677529D01*
X108621658Y-48785279D01*
X109214280Y-48677529D02*
X108648595Y-48111844D01*
X109537529Y-48354280D01*
X108971844Y-47788595D01*
X109806903Y-48084906D02*
X109241218Y-47519221D01*
X109375905Y-47384534D01*
X109483654Y-47330659D01*
X109591404Y-47330659D01*
X109672216Y-47357597D01*
X109806903Y-47438409D01*
X109887715Y-47519221D01*
X109968528Y-47653908D01*
X109995465Y-47734720D01*
X109995465Y-47842470D01*
X109941590Y-47950219D01*
X109806903Y-48084906D01*
X108406158Y-86508155D02*
X108325346Y-86535093D01*
X108244534Y-86615905D01*
X108190659Y-86723654D01*
X108190659Y-86831404D01*
X108217597Y-86912216D01*
X108298409Y-87046903D01*
X108379221Y-87127715D01*
X108513908Y-87208528D01*
X108594720Y-87235465D01*
X108702470Y-87235465D01*
X108810219Y-87181590D01*
X108864094Y-87127715D01*
X108917969Y-87019966D01*
X108917969Y-86966091D01*
X108729407Y-86777529D01*
X108621658Y-86885279D01*
X109214280Y-86777529D02*
X108648595Y-86211844D01*
X109537529Y-86454280D01*
X108971844Y-85888595D01*
X109806903Y-86184906D02*
X109241218Y-85619221D01*
X109375905Y-85484534D01*
X109483654Y-85430659D01*
X109591404Y-85430659D01*
X109672216Y-85457597D01*
X109806903Y-85538409D01*
X109887715Y-85619221D01*
X109968528Y-85753908D01*
X109995465Y-85834720D01*
X109995465Y-85942470D01*
X109941590Y-86050219D01*
X109806903Y-86184906D01*
X108433096Y-53461218D02*
X108352284Y-53488155D01*
X108271471Y-53568967D01*
X108217597Y-53676717D01*
X108217597Y-53784467D01*
X108244534Y-53865279D01*
X108325346Y-53999966D01*
X108406158Y-54080778D01*
X108540845Y-54161590D01*
X108621658Y-54188528D01*
X108729407Y-54188528D01*
X108837157Y-54134653D01*
X108891032Y-54080778D01*
X108944906Y-53973028D01*
X108944906Y-53919154D01*
X108756345Y-53730592D01*
X108648595Y-53838341D01*
X109241218Y-53730592D02*
X108675532Y-53164906D01*
X108891032Y-52949407D01*
X108971844Y-52922470D01*
X109025719Y-52922470D01*
X109106531Y-52949407D01*
X109187343Y-53030219D01*
X109214280Y-53111032D01*
X109214280Y-53164906D01*
X109187343Y-53245719D01*
X108971844Y-53461218D01*
X109187343Y-52653096D02*
X109537529Y-52302910D01*
X109564467Y-52706971D01*
X109645279Y-52626158D01*
X109726091Y-52599221D01*
X109779966Y-52599221D01*
X109860778Y-52626158D01*
X109995465Y-52760845D01*
X110022402Y-52841658D01*
X110022402Y-52895532D01*
X109995465Y-52976345D01*
X109833841Y-53137969D01*
X109753028Y-53164906D01*
X109699154Y-53164906D01*
X108433096Y-43301218D02*
X108352284Y-43328155D01*
X108271471Y-43408967D01*
X108217597Y-43516717D01*
X108217597Y-43624467D01*
X108244534Y-43705279D01*
X108325346Y-43839966D01*
X108406158Y-43920778D01*
X108540845Y-44001590D01*
X108621658Y-44028528D01*
X108729407Y-44028528D01*
X108837157Y-43974653D01*
X108891032Y-43920778D01*
X108944906Y-43813028D01*
X108944906Y-43759154D01*
X108756345Y-43570592D01*
X108648595Y-43678341D01*
X109241218Y-43570592D02*
X108675532Y-43004906D01*
X108891032Y-42789407D01*
X108971844Y-42762470D01*
X109025719Y-42762470D01*
X109106531Y-42789407D01*
X109187343Y-42870219D01*
X109214280Y-42951032D01*
X109214280Y-43004906D01*
X109187343Y-43085719D01*
X108971844Y-43301218D01*
X109348967Y-42331471D02*
X109402842Y-42277597D01*
X109483654Y-42250659D01*
X109537529Y-42250659D01*
X109618341Y-42277597D01*
X109753028Y-42358409D01*
X109887715Y-42493096D01*
X109968528Y-42627783D01*
X109995465Y-42708595D01*
X109995465Y-42762470D01*
X109968528Y-42843282D01*
X109914653Y-42897157D01*
X109833841Y-42924094D01*
X109779966Y-42924094D01*
X109699154Y-42897157D01*
X109564467Y-42816345D01*
X109429780Y-42681658D01*
X109348967Y-42546971D01*
X109322030Y-42466158D01*
X109322030Y-42412284D01*
X109348967Y-42331471D01*
X108433096Y-58541218D02*
X108352284Y-58568155D01*
X108271471Y-58648967D01*
X108217597Y-58756717D01*
X108217597Y-58864467D01*
X108244534Y-58945279D01*
X108325346Y-59079966D01*
X108406158Y-59160778D01*
X108540845Y-59241590D01*
X108621658Y-59268528D01*
X108729407Y-59268528D01*
X108837157Y-59214653D01*
X108891032Y-59160778D01*
X108944906Y-59053028D01*
X108944906Y-58999154D01*
X108756345Y-58810592D01*
X108648595Y-58918341D01*
X109241218Y-58810592D02*
X108675532Y-58244906D01*
X108891032Y-58029407D01*
X108971844Y-58002470D01*
X109025719Y-58002470D01*
X109106531Y-58029407D01*
X109187343Y-58110219D01*
X109214280Y-58191032D01*
X109214280Y-58244906D01*
X109187343Y-58325719D01*
X108971844Y-58541218D01*
X109510592Y-57409847D02*
X109241218Y-57679221D01*
X109483654Y-57975532D01*
X109483654Y-57921658D01*
X109510592Y-57840845D01*
X109645279Y-57706158D01*
X109726091Y-57679221D01*
X109779966Y-57679221D01*
X109860778Y-57706158D01*
X109995465Y-57840845D01*
X110022402Y-57921658D01*
X110022402Y-57975532D01*
X109995465Y-58056345D01*
X109860778Y-58191032D01*
X109779966Y-58217969D01*
X109726091Y-58217969D01*
X125824761Y-93833809D02*
X125939047Y-93871904D01*
X126129523Y-93871904D01*
X126205714Y-93833809D01*
X126243809Y-93795714D01*
X126281904Y-93719523D01*
X126281904Y-93643333D01*
X126243809Y-93567142D01*
X126205714Y-93529047D01*
X126129523Y-93490952D01*
X125977142Y-93452857D01*
X125900952Y-93414761D01*
X125862857Y-93376666D01*
X125824761Y-93300476D01*
X125824761Y-93224285D01*
X125862857Y-93148095D01*
X125900952Y-93110000D01*
X125977142Y-93071904D01*
X126167619Y-93071904D01*
X126281904Y-93110000D01*
X126548571Y-93071904D02*
X126739047Y-93871904D01*
X126891428Y-93300476D01*
X127043809Y-93871904D01*
X127234285Y-93071904D01*
X127539047Y-93871904D02*
X127539047Y-93071904D01*
X127729523Y-93071904D01*
X127843809Y-93110000D01*
X127920000Y-93186190D01*
X127958095Y-93262380D01*
X127996190Y-93414761D01*
X127996190Y-93529047D01*
X127958095Y-93681428D01*
X127920000Y-93757619D01*
X127843809Y-93833809D01*
X127729523Y-93871904D01*
X127539047Y-93871904D01*
X128339047Y-93871904D02*
X128339047Y-93071904D01*
X128872380Y-93071904D02*
X129024761Y-93071904D01*
X129100952Y-93110000D01*
X129177142Y-93186190D01*
X129215238Y-93338571D01*
X129215238Y-93605238D01*
X129177142Y-93757619D01*
X129100952Y-93833809D01*
X129024761Y-93871904D01*
X128872380Y-93871904D01*
X128796190Y-93833809D01*
X128720000Y-93757619D01*
X128681904Y-93605238D01*
X128681904Y-93338571D01*
X128720000Y-93186190D01*
X128796190Y-93110000D01*
X128872380Y-93071904D01*
X108433096Y-71241218D02*
X108352284Y-71268155D01*
X108271471Y-71348967D01*
X108217597Y-71456717D01*
X108217597Y-71564467D01*
X108244534Y-71645279D01*
X108325346Y-71779966D01*
X108406158Y-71860778D01*
X108540845Y-71941590D01*
X108621658Y-71968528D01*
X108729407Y-71968528D01*
X108837157Y-71914653D01*
X108891032Y-71860778D01*
X108944906Y-71753028D01*
X108944906Y-71699154D01*
X108756345Y-71510592D01*
X108648595Y-71618341D01*
X109241218Y-71510592D02*
X108675532Y-70944906D01*
X108891032Y-70729407D01*
X108971844Y-70702470D01*
X109025719Y-70702470D01*
X109106531Y-70729407D01*
X109187343Y-70810219D01*
X109214280Y-70891032D01*
X109214280Y-70944906D01*
X109187343Y-71025719D01*
X108971844Y-71241218D01*
X109833841Y-70917969D02*
X109941590Y-70810219D01*
X109968528Y-70729407D01*
X109968528Y-70675532D01*
X109941590Y-70540845D01*
X109860778Y-70406158D01*
X109645279Y-70190659D01*
X109564467Y-70163722D01*
X109510592Y-70163722D01*
X109429780Y-70190659D01*
X109322030Y-70298409D01*
X109295093Y-70379221D01*
X109295093Y-70433096D01*
X109322030Y-70513908D01*
X109456717Y-70648595D01*
X109537529Y-70675532D01*
X109591404Y-70675532D01*
X109672216Y-70648595D01*
X109779966Y-70540845D01*
X109806903Y-70460033D01*
X109806903Y-70406158D01*
X109779966Y-70325346D01*
X134017722Y-58556592D02*
X133936910Y-58583529D01*
X133856097Y-58664341D01*
X133802223Y-58772091D01*
X133802223Y-58879841D01*
X133829160Y-58960653D01*
X133909972Y-59095340D01*
X133990784Y-59176152D01*
X134125471Y-59256964D01*
X134206284Y-59283902D01*
X134314033Y-59283902D01*
X134421783Y-59230027D01*
X134475658Y-59176152D01*
X134529532Y-59068402D01*
X134529532Y-59014528D01*
X134340971Y-58825966D01*
X134233221Y-58933715D01*
X134825844Y-58825966D02*
X134260158Y-58260280D01*
X134475658Y-58044781D01*
X134556470Y-58017844D01*
X134610345Y-58017844D01*
X134691157Y-58044781D01*
X134771969Y-58125593D01*
X134798906Y-58206406D01*
X134798906Y-58260280D01*
X134771969Y-58341093D01*
X134556470Y-58556592D01*
X134852781Y-57775407D02*
X134852781Y-57721532D01*
X134879719Y-57640720D01*
X135014406Y-57506033D01*
X135095218Y-57479096D01*
X135149093Y-57479096D01*
X135229905Y-57506033D01*
X135283780Y-57559908D01*
X135337654Y-57667658D01*
X135337654Y-58314155D01*
X135687841Y-57963969D01*
X135687841Y-57317471D02*
X135607028Y-57344409D01*
X135553154Y-57344409D01*
X135472341Y-57317471D01*
X135445404Y-57290534D01*
X135418467Y-57209722D01*
X135418467Y-57155847D01*
X135445404Y-57075035D01*
X135553154Y-56967285D01*
X135633966Y-56940348D01*
X135687841Y-56940348D01*
X135768653Y-56967285D01*
X135795590Y-56994223D01*
X135822528Y-57075035D01*
X135822528Y-57128910D01*
X135795590Y-57209722D01*
X135687841Y-57317471D01*
X135660903Y-57398284D01*
X135660903Y-57452158D01*
X135687841Y-57532971D01*
X135795590Y-57640720D01*
X135876402Y-57667658D01*
X135930277Y-57667658D01*
X136011089Y-57640720D01*
X136118839Y-57532971D01*
X136145776Y-57452158D01*
X136145776Y-57398284D01*
X136118839Y-57317471D01*
X136011089Y-57209722D01*
X135930277Y-57182784D01*
X135876402Y-57182784D01*
X135795590Y-57209722D01*
X108406158Y-61108155D02*
X108325346Y-61135093D01*
X108244534Y-61215905D01*
X108190659Y-61323654D01*
X108190659Y-61431404D01*
X108217597Y-61512216D01*
X108298409Y-61646903D01*
X108379221Y-61727715D01*
X108513908Y-61808528D01*
X108594720Y-61835465D01*
X108702470Y-61835465D01*
X108810219Y-61781590D01*
X108864094Y-61727715D01*
X108917969Y-61619966D01*
X108917969Y-61566091D01*
X108729407Y-61377529D01*
X108621658Y-61485279D01*
X109214280Y-61377529D02*
X108648595Y-60811844D01*
X109537529Y-61054280D01*
X108971844Y-60488595D01*
X109806903Y-60784906D02*
X109241218Y-60219221D01*
X109375905Y-60084534D01*
X109483654Y-60030659D01*
X109591404Y-60030659D01*
X109672216Y-60057597D01*
X109806903Y-60138409D01*
X109887715Y-60219221D01*
X109968528Y-60353908D01*
X109995465Y-60434720D01*
X109995465Y-60542470D01*
X109941590Y-60650219D01*
X109806903Y-60784906D01*
X134006158Y-73808155D02*
X133925346Y-73835093D01*
X133844534Y-73915905D01*
X133790659Y-74023654D01*
X133790659Y-74131404D01*
X133817597Y-74212216D01*
X133898409Y-74346903D01*
X133979221Y-74427715D01*
X134113908Y-74508528D01*
X134194720Y-74535465D01*
X134302470Y-74535465D01*
X134410219Y-74481590D01*
X134464094Y-74427715D01*
X134517969Y-74319966D01*
X134517969Y-74266091D01*
X134329407Y-74077529D01*
X134221658Y-74185279D01*
X134814280Y-74077529D02*
X134248595Y-73511844D01*
X135137529Y-73754280D01*
X134571844Y-73188595D01*
X135406903Y-73484906D02*
X134841218Y-72919221D01*
X134975905Y-72784534D01*
X135083654Y-72730659D01*
X135191404Y-72730659D01*
X135272216Y-72757597D01*
X135406903Y-72838409D01*
X135487715Y-72919221D01*
X135568528Y-73053908D01*
X135595465Y-73134720D01*
X135595465Y-73242470D01*
X135541590Y-73350219D01*
X135406903Y-73484906D01*
X134017722Y-91830592D02*
X133936910Y-91857529D01*
X133856097Y-91938341D01*
X133802223Y-92046091D01*
X133802223Y-92153841D01*
X133829160Y-92234653D01*
X133909972Y-92369340D01*
X133990784Y-92450152D01*
X134125471Y-92530964D01*
X134206284Y-92557902D01*
X134314033Y-92557902D01*
X134421783Y-92504027D01*
X134475658Y-92450152D01*
X134529532Y-92342402D01*
X134529532Y-92288528D01*
X134340971Y-92099966D01*
X134233221Y-92207715D01*
X134825844Y-92099966D02*
X134260158Y-91534280D01*
X134475658Y-91318781D01*
X134556470Y-91291844D01*
X134610345Y-91291844D01*
X134691157Y-91318781D01*
X134771969Y-91399593D01*
X134798906Y-91480406D01*
X134798906Y-91534280D01*
X134771969Y-91615093D01*
X134556470Y-91830592D01*
X135687841Y-91237969D02*
X135364592Y-91561218D01*
X135526216Y-91399593D02*
X134960531Y-90833908D01*
X134987468Y-90968595D01*
X134987468Y-91076345D01*
X134960531Y-91157157D01*
X135607028Y-90187410D02*
X135499279Y-90295160D01*
X135472341Y-90375972D01*
X135472341Y-90429847D01*
X135499279Y-90564534D01*
X135580091Y-90699221D01*
X135795590Y-90914720D01*
X135876402Y-90941658D01*
X135930277Y-90941658D01*
X136011089Y-90914720D01*
X136118839Y-90806971D01*
X136145776Y-90726158D01*
X136145776Y-90672284D01*
X136118839Y-90591471D01*
X135984152Y-90456784D01*
X135903340Y-90429847D01*
X135849465Y-90429847D01*
X135768653Y-90456784D01*
X135660903Y-90564534D01*
X135633966Y-90645346D01*
X135633966Y-90699221D01*
X135660903Y-90780033D01*
X108433096Y-68701218D02*
X108352284Y-68728155D01*
X108271471Y-68808967D01*
X108217597Y-68916717D01*
X108217597Y-69024467D01*
X108244534Y-69105279D01*
X108325346Y-69239966D01*
X108406158Y-69320778D01*
X108540845Y-69401590D01*
X108621658Y-69428528D01*
X108729407Y-69428528D01*
X108837157Y-69374653D01*
X108891032Y-69320778D01*
X108944906Y-69213028D01*
X108944906Y-69159154D01*
X108756345Y-68970592D01*
X108648595Y-69078341D01*
X109241218Y-68970592D02*
X108675532Y-68404906D01*
X108891032Y-68189407D01*
X108971844Y-68162470D01*
X109025719Y-68162470D01*
X109106531Y-68189407D01*
X109187343Y-68270219D01*
X109214280Y-68351032D01*
X109214280Y-68404906D01*
X109187343Y-68485719D01*
X108971844Y-68701218D01*
X109564467Y-68000845D02*
X109483654Y-68027783D01*
X109429780Y-68027783D01*
X109348967Y-68000845D01*
X109322030Y-67973908D01*
X109295093Y-67893096D01*
X109295093Y-67839221D01*
X109322030Y-67758409D01*
X109429780Y-67650659D01*
X109510592Y-67623722D01*
X109564467Y-67623722D01*
X109645279Y-67650659D01*
X109672216Y-67677597D01*
X109699154Y-67758409D01*
X109699154Y-67812284D01*
X109672216Y-67893096D01*
X109564467Y-68000845D01*
X109537529Y-68081658D01*
X109537529Y-68135532D01*
X109564467Y-68216345D01*
X109672216Y-68324094D01*
X109753028Y-68351032D01*
X109806903Y-68351032D01*
X109887715Y-68324094D01*
X109995465Y-68216345D01*
X110022402Y-68135532D01*
X110022402Y-68081658D01*
X109995465Y-68000845D01*
X109887715Y-67893096D01*
X109806903Y-67866158D01*
X109753028Y-67866158D01*
X109672216Y-67893096D01*
X133809847Y-53800592D02*
X134160033Y-53450406D01*
X134186971Y-53854467D01*
X134267783Y-53773654D01*
X134348595Y-53746717D01*
X134402470Y-53746717D01*
X134483282Y-53773654D01*
X134617969Y-53908341D01*
X134644906Y-53989154D01*
X134644906Y-54043028D01*
X134617969Y-54123841D01*
X134456345Y-54285465D01*
X134375532Y-54312402D01*
X134321658Y-54312402D01*
X134321658Y-53288781D02*
X135075905Y-53665905D01*
X134698781Y-52911658D01*
X134833468Y-52776971D02*
X135183654Y-52426784D01*
X135210592Y-52830845D01*
X135291404Y-52750033D01*
X135372216Y-52723096D01*
X135426091Y-52723096D01*
X135506903Y-52750033D01*
X135641590Y-52884720D01*
X135668528Y-52965532D01*
X135668528Y-53019407D01*
X135641590Y-53100219D01*
X135479966Y-53261844D01*
X135399154Y-53288781D01*
X135345279Y-53288781D01*
X133842131Y-51268308D02*
X134192317Y-50918122D01*
X134219255Y-51322183D01*
X134300067Y-51241370D01*
X134380879Y-51214433D01*
X134434754Y-51214433D01*
X134515566Y-51241370D01*
X134650253Y-51376057D01*
X134677190Y-51456870D01*
X134677190Y-51510744D01*
X134650253Y-51591557D01*
X134488629Y-51753181D01*
X134407816Y-51780118D01*
X134353942Y-51780118D01*
X134353942Y-50756497D02*
X135108189Y-51133621D01*
X134731065Y-50379374D01*
X134865752Y-50244687D02*
X135215938Y-49894500D01*
X135242876Y-50298561D01*
X135323688Y-50217749D01*
X135404500Y-50190812D01*
X135458375Y-50190812D01*
X135539187Y-50217749D01*
X135673874Y-50352436D01*
X135700812Y-50433248D01*
X135700812Y-50487123D01*
X135673874Y-50567935D01*
X135512250Y-50729560D01*
X135431438Y-50756497D01*
X135377563Y-50756497D01*
X135943248Y-50406311D02*
X136374247Y-49975312D01*
X136158748Y-49490439D02*
X136347309Y-49301877D01*
X136724433Y-49517377D02*
X136455059Y-49786751D01*
X135889374Y-49221065D01*
X136158748Y-48951691D01*
X136966870Y-49274940D02*
X136401184Y-48709255D01*
X137290118Y-48951691D01*
X136724433Y-48386006D01*
X114410476Y-93833809D02*
X114524761Y-93871904D01*
X114715238Y-93871904D01*
X114791428Y-93833809D01*
X114829523Y-93795714D01*
X114867619Y-93719523D01*
X114867619Y-93643333D01*
X114829523Y-93567142D01*
X114791428Y-93529047D01*
X114715238Y-93490952D01*
X114562857Y-93452857D01*
X114486666Y-93414761D01*
X114448571Y-93376666D01*
X114410476Y-93300476D01*
X114410476Y-93224285D01*
X114448571Y-93148095D01*
X114486666Y-93110000D01*
X114562857Y-93071904D01*
X114753333Y-93071904D01*
X114867619Y-93110000D01*
X115134285Y-93071904D02*
X115324761Y-93871904D01*
X115477142Y-93300476D01*
X115629523Y-93871904D01*
X115820000Y-93071904D01*
X116581904Y-93795714D02*
X116543809Y-93833809D01*
X116429523Y-93871904D01*
X116353333Y-93871904D01*
X116239047Y-93833809D01*
X116162857Y-93757619D01*
X116124761Y-93681428D01*
X116086666Y-93529047D01*
X116086666Y-93414761D01*
X116124761Y-93262380D01*
X116162857Y-93186190D01*
X116239047Y-93110000D01*
X116353333Y-93071904D01*
X116429523Y-93071904D01*
X116543809Y-93110000D01*
X116581904Y-93148095D01*
X117305714Y-93871904D02*
X116924761Y-93871904D01*
X116924761Y-93071904D01*
X117572380Y-93871904D02*
X117572380Y-93071904D01*
X118029523Y-93871904D02*
X117686666Y-93414761D01*
X118029523Y-93071904D02*
X117572380Y-93529047D01*
X134017722Y-66430592D02*
X133936910Y-66457529D01*
X133856097Y-66538341D01*
X133802223Y-66646091D01*
X133802223Y-66753841D01*
X133829160Y-66834653D01*
X133909972Y-66969340D01*
X133990784Y-67050152D01*
X134125471Y-67130964D01*
X134206284Y-67157902D01*
X134314033Y-67157902D01*
X134421783Y-67104027D01*
X134475658Y-67050152D01*
X134529532Y-66942402D01*
X134529532Y-66888528D01*
X134340971Y-66699966D01*
X134233221Y-66807715D01*
X134825844Y-66699966D02*
X134260158Y-66134280D01*
X134475658Y-65918781D01*
X134556470Y-65891844D01*
X134610345Y-65891844D01*
X134691157Y-65918781D01*
X134771969Y-65999593D01*
X134798906Y-66080406D01*
X134798906Y-66134280D01*
X134771969Y-66215093D01*
X134556470Y-66430592D01*
X134852781Y-65649407D02*
X134852781Y-65595532D01*
X134879719Y-65514720D01*
X135014406Y-65380033D01*
X135095218Y-65353096D01*
X135149093Y-65353096D01*
X135229905Y-65380033D01*
X135283780Y-65433908D01*
X135337654Y-65541658D01*
X135337654Y-66188155D01*
X135687841Y-65837969D01*
X135607028Y-64787410D02*
X135499279Y-64895160D01*
X135472341Y-64975972D01*
X135472341Y-65029847D01*
X135499279Y-65164534D01*
X135580091Y-65299221D01*
X135795590Y-65514720D01*
X135876402Y-65541658D01*
X135930277Y-65541658D01*
X136011089Y-65514720D01*
X136118839Y-65406971D01*
X136145776Y-65326158D01*
X136145776Y-65272284D01*
X136118839Y-65191471D01*
X135984152Y-65056784D01*
X135903340Y-65029847D01*
X135849465Y-65029847D01*
X135768653Y-65056784D01*
X135660903Y-65164534D01*
X135633966Y-65245346D01*
X135633966Y-65299221D01*
X135660903Y-65380033D01*
X134017722Y-89290592D02*
X133936910Y-89317529D01*
X133856097Y-89398341D01*
X133802223Y-89506091D01*
X133802223Y-89613841D01*
X133829160Y-89694653D01*
X133909972Y-89829340D01*
X133990784Y-89910152D01*
X134125471Y-89990964D01*
X134206284Y-90017902D01*
X134314033Y-90017902D01*
X134421783Y-89964027D01*
X134475658Y-89910152D01*
X134529532Y-89802402D01*
X134529532Y-89748528D01*
X134340971Y-89559966D01*
X134233221Y-89667715D01*
X134825844Y-89559966D02*
X134260158Y-88994280D01*
X134475658Y-88778781D01*
X134556470Y-88751844D01*
X134610345Y-88751844D01*
X134691157Y-88778781D01*
X134771969Y-88859593D01*
X134798906Y-88940406D01*
X134798906Y-88994280D01*
X134771969Y-89075093D01*
X134556470Y-89290592D01*
X135687841Y-88697969D02*
X135364592Y-89021218D01*
X135526216Y-88859593D02*
X134960531Y-88293908D01*
X134987468Y-88428595D01*
X134987468Y-88536345D01*
X134960531Y-88617157D01*
X135310717Y-87943722D02*
X135687841Y-87566598D01*
X136011089Y-88374720D01*
X107909722Y-91830592D02*
X107828910Y-91857529D01*
X107748097Y-91938341D01*
X107694223Y-92046091D01*
X107694223Y-92153841D01*
X107721160Y-92234653D01*
X107801972Y-92369340D01*
X107882784Y-92450152D01*
X108017471Y-92530964D01*
X108098284Y-92557902D01*
X108206033Y-92557902D01*
X108313783Y-92504027D01*
X108367658Y-92450152D01*
X108421532Y-92342402D01*
X108421532Y-92288528D01*
X108232971Y-92099966D01*
X108125221Y-92207715D01*
X108717844Y-92099966D02*
X108152158Y-91534280D01*
X108367658Y-91318781D01*
X108448470Y-91291844D01*
X108502345Y-91291844D01*
X108583157Y-91318781D01*
X108663969Y-91399593D01*
X108690906Y-91480406D01*
X108690906Y-91534280D01*
X108663969Y-91615093D01*
X108448470Y-91830592D01*
X109579841Y-91237969D02*
X109256592Y-91561218D01*
X109418216Y-91399593D02*
X108852531Y-90833908D01*
X108879468Y-90968595D01*
X108879468Y-91076345D01*
X108852531Y-91157157D01*
X109525966Y-90160473D02*
X109256592Y-90429847D01*
X109499028Y-90726158D01*
X109499028Y-90672284D01*
X109525966Y-90591471D01*
X109660653Y-90456784D01*
X109741465Y-90429847D01*
X109795340Y-90429847D01*
X109876152Y-90456784D01*
X110010839Y-90591471D01*
X110037776Y-90672284D01*
X110037776Y-90726158D01*
X110010839Y-90806971D01*
X109876152Y-90941658D01*
X109795340Y-90968595D01*
X109741465Y-90968595D01*
X108533096Y-66131218D02*
X108452284Y-66158155D01*
X108371471Y-66238967D01*
X108317597Y-66346717D01*
X108317597Y-66454467D01*
X108344534Y-66535279D01*
X108425346Y-66669966D01*
X108506158Y-66750778D01*
X108640845Y-66831590D01*
X108721658Y-66858528D01*
X108829407Y-66858528D01*
X108937157Y-66804653D01*
X108991032Y-66750778D01*
X109044906Y-66643028D01*
X109044906Y-66589154D01*
X108856345Y-66400592D01*
X108748595Y-66508341D01*
X109341218Y-66400592D02*
X108775532Y-65834906D01*
X108991032Y-65619407D01*
X109071844Y-65592470D01*
X109125719Y-65592470D01*
X109206531Y-65619407D01*
X109287343Y-65700219D01*
X109314280Y-65781032D01*
X109314280Y-65834906D01*
X109287343Y-65915719D01*
X109071844Y-66131218D01*
X109287343Y-65323096D02*
X109664467Y-64945972D01*
X109987715Y-65754094D01*
X108433096Y-56001218D02*
X108352284Y-56028155D01*
X108271471Y-56108967D01*
X108217597Y-56216717D01*
X108217597Y-56324467D01*
X108244534Y-56405279D01*
X108325346Y-56539966D01*
X108406158Y-56620778D01*
X108540845Y-56701590D01*
X108621658Y-56728528D01*
X108729407Y-56728528D01*
X108837157Y-56674653D01*
X108891032Y-56620778D01*
X108944906Y-56513028D01*
X108944906Y-56459154D01*
X108756345Y-56270592D01*
X108648595Y-56378341D01*
X109241218Y-56270592D02*
X108675532Y-55704906D01*
X108891032Y-55489407D01*
X108971844Y-55462470D01*
X109025719Y-55462470D01*
X109106531Y-55489407D01*
X109187343Y-55570219D01*
X109214280Y-55651032D01*
X109214280Y-55704906D01*
X109187343Y-55785719D01*
X108971844Y-56001218D01*
X109672216Y-55085346D02*
X110049340Y-55462470D01*
X109322030Y-55004534D02*
X109591404Y-55543282D01*
X109941590Y-55193096D01*
X134855972Y-56062589D02*
X135125346Y-55793215D01*
X134963722Y-56278088D02*
X134586598Y-55523841D01*
X135340845Y-55900964D01*
X135529407Y-55712402D02*
X134963722Y-55146717D01*
X135098409Y-55012030D01*
X135206158Y-54958155D01*
X135313908Y-54958155D01*
X135394720Y-54985093D01*
X135529407Y-55065905D01*
X135610219Y-55146717D01*
X135691032Y-55281404D01*
X135717969Y-55362216D01*
X135717969Y-55469966D01*
X135664094Y-55577715D01*
X135529407Y-55712402D01*
X136364467Y-54769593D02*
X136364467Y-54823468D01*
X136310592Y-54931218D01*
X136256717Y-54985093D01*
X136148967Y-55038967D01*
X136041218Y-55038967D01*
X135960406Y-55012030D01*
X135825719Y-54931218D01*
X135744906Y-54850406D01*
X135664094Y-54715719D01*
X135637157Y-54634906D01*
X135637157Y-54527157D01*
X135691032Y-54419407D01*
X135744906Y-54365532D01*
X135852656Y-54311658D01*
X135906531Y-54311658D01*
X136579966Y-54769593D02*
X137010964Y-54338595D01*
X136445279Y-53665160D02*
X137199526Y-54042284D01*
X136822402Y-53288036D01*
X107909722Y-84210592D02*
X107828910Y-84237529D01*
X107748097Y-84318341D01*
X107694223Y-84426091D01*
X107694223Y-84533841D01*
X107721160Y-84614653D01*
X107801972Y-84749340D01*
X107882784Y-84830152D01*
X108017471Y-84910964D01*
X108098284Y-84937902D01*
X108206033Y-84937902D01*
X108313783Y-84884027D01*
X108367658Y-84830152D01*
X108421532Y-84722402D01*
X108421532Y-84668528D01*
X108232971Y-84479966D01*
X108125221Y-84587715D01*
X108717844Y-84479966D02*
X108152158Y-83914280D01*
X108367658Y-83698781D01*
X108448470Y-83671844D01*
X108502345Y-83671844D01*
X108583157Y-83698781D01*
X108663969Y-83779593D01*
X108690906Y-83860406D01*
X108690906Y-83914280D01*
X108663969Y-83995093D01*
X108448470Y-84210592D01*
X109579841Y-83617969D02*
X109256592Y-83941218D01*
X109418216Y-83779593D02*
X108852531Y-83213908D01*
X108879468Y-83348595D01*
X108879468Y-83456345D01*
X108852531Y-83537157D01*
X109202717Y-82863722D02*
X109552903Y-82513536D01*
X109579841Y-82917597D01*
X109660653Y-82836784D01*
X109741465Y-82809847D01*
X109795340Y-82809847D01*
X109876152Y-82836784D01*
X110010839Y-82971471D01*
X110037776Y-83052284D01*
X110037776Y-83106158D01*
X110010839Y-83186971D01*
X109849215Y-83348595D01*
X109768402Y-83375532D01*
X109714528Y-83375532D01*
X134006158Y-48408155D02*
X133925346Y-48435093D01*
X133844534Y-48515905D01*
X133790659Y-48623654D01*
X133790659Y-48731404D01*
X133817597Y-48812216D01*
X133898409Y-48946903D01*
X133979221Y-49027715D01*
X134113908Y-49108528D01*
X134194720Y-49135465D01*
X134302470Y-49135465D01*
X134410219Y-49081590D01*
X134464094Y-49027715D01*
X134517969Y-48919966D01*
X134517969Y-48866091D01*
X134329407Y-48677529D01*
X134221658Y-48785279D01*
X134814280Y-48677529D02*
X134248595Y-48111844D01*
X135137529Y-48354280D01*
X134571844Y-47788595D01*
X135406903Y-48084906D02*
X134841218Y-47519221D01*
X134975905Y-47384534D01*
X135083654Y-47330659D01*
X135191404Y-47330659D01*
X135272216Y-47357597D01*
X135406903Y-47438409D01*
X135487715Y-47519221D01*
X135568528Y-47653908D01*
X135595465Y-47734720D01*
X135595465Y-47842470D01*
X135541590Y-47950219D01*
X135406903Y-48084906D01*
X133873129Y-43837309D02*
X134627377Y-44214433D01*
X134250253Y-43460186D01*
X134896751Y-43352436D02*
X135004500Y-43298561D01*
X135058375Y-43298561D01*
X135139187Y-43325499D01*
X135220000Y-43406311D01*
X135246937Y-43487123D01*
X135246937Y-43540998D01*
X135220000Y-43621810D01*
X135004500Y-43837309D01*
X134438815Y-43271624D01*
X134627377Y-43083062D01*
X134708189Y-43056125D01*
X134762064Y-43056125D01*
X134842876Y-43083062D01*
X134896751Y-43136937D01*
X134923688Y-43217749D01*
X134923688Y-43271624D01*
X134896751Y-43352436D01*
X134708189Y-43540998D01*
X135004500Y-42705938D02*
X135462436Y-43163874D01*
X135543248Y-43190812D01*
X135597123Y-43190812D01*
X135677935Y-43163874D01*
X135785685Y-43056125D01*
X135812622Y-42975312D01*
X135812622Y-42921438D01*
X135785685Y-42840625D01*
X135327749Y-42382690D01*
X136108934Y-42679001D02*
X136216683Y-42625126D01*
X136351370Y-42490439D01*
X136378308Y-42409627D01*
X136378308Y-42355752D01*
X136351370Y-42274940D01*
X136297496Y-42221065D01*
X136216683Y-42194128D01*
X136162809Y-42194128D01*
X136081996Y-42221065D01*
X135947309Y-42301877D01*
X135866497Y-42328815D01*
X135812622Y-42328815D01*
X135731810Y-42301877D01*
X135677935Y-42248003D01*
X135650998Y-42167190D01*
X135650998Y-42113316D01*
X135677935Y-42032503D01*
X135812622Y-41897816D01*
X135920372Y-41843942D01*
X134006158Y-86508155D02*
X133925346Y-86535093D01*
X133844534Y-86615905D01*
X133790659Y-86723654D01*
X133790659Y-86831404D01*
X133817597Y-86912216D01*
X133898409Y-87046903D01*
X133979221Y-87127715D01*
X134113908Y-87208528D01*
X134194720Y-87235465D01*
X134302470Y-87235465D01*
X134410219Y-87181590D01*
X134464094Y-87127715D01*
X134517969Y-87019966D01*
X134517969Y-86966091D01*
X134329407Y-86777529D01*
X134221658Y-86885279D01*
X134814280Y-86777529D02*
X134248595Y-86211844D01*
X135137529Y-86454280D01*
X134571844Y-85888595D01*
X135406903Y-86184906D02*
X134841218Y-85619221D01*
X134975905Y-85484534D01*
X135083654Y-85430659D01*
X135191404Y-85430659D01*
X135272216Y-85457597D01*
X135406903Y-85538409D01*
X135487715Y-85619221D01*
X135568528Y-85753908D01*
X135595465Y-85834720D01*
X135595465Y-85942470D01*
X135541590Y-86050219D01*
X135406903Y-86184906D01*
X134071597Y-62050964D02*
X134340971Y-61781590D01*
X134179346Y-62266463D02*
X133802223Y-61512216D01*
X134556470Y-61889340D01*
X134502595Y-60865719D02*
X134421783Y-60892656D01*
X134340971Y-60973468D01*
X134287096Y-61081218D01*
X134287096Y-61188967D01*
X134314033Y-61269780D01*
X134394845Y-61404467D01*
X134475658Y-61485279D01*
X134610345Y-61566091D01*
X134691157Y-61593028D01*
X134798906Y-61593028D01*
X134906656Y-61539154D01*
X134960531Y-61485279D01*
X135014406Y-61377529D01*
X135014406Y-61323654D01*
X134825844Y-61135093D01*
X134718094Y-61242842D01*
X135310717Y-61135093D02*
X134745032Y-60569407D01*
X135633966Y-60811844D01*
X135068280Y-60246158D01*
X135903340Y-60542470D02*
X135337654Y-59976784D01*
X135472341Y-59842097D01*
X135580091Y-59788223D01*
X135687841Y-59788223D01*
X135768653Y-59815160D01*
X135903340Y-59895972D01*
X135984152Y-59976784D01*
X136064964Y-60111471D01*
X136091902Y-60192284D01*
X136091902Y-60300033D01*
X136038027Y-60407783D01*
X135903340Y-60542470D01*
X107763722Y-79130592D02*
X107682910Y-79157529D01*
X107602097Y-79238341D01*
X107548223Y-79346091D01*
X107548223Y-79453841D01*
X107575160Y-79534653D01*
X107655972Y-79669340D01*
X107736784Y-79750152D01*
X107871471Y-79830964D01*
X107952284Y-79857902D01*
X108060033Y-79857902D01*
X108167783Y-79804027D01*
X108221658Y-79750152D01*
X108275532Y-79642402D01*
X108275532Y-79588528D01*
X108086971Y-79399966D01*
X107979221Y-79507715D01*
X108571844Y-79399966D02*
X108006158Y-78834280D01*
X108221658Y-78618781D01*
X108302470Y-78591844D01*
X108356345Y-78591844D01*
X108437157Y-78618781D01*
X108517969Y-78699593D01*
X108544906Y-78780406D01*
X108544906Y-78834280D01*
X108517969Y-78915093D01*
X108302470Y-79130592D01*
X109433841Y-78537969D02*
X109110592Y-78861218D01*
X109272216Y-78699593D02*
X108706531Y-78133908D01*
X108733468Y-78268595D01*
X108733468Y-78376345D01*
X108706531Y-78457157D01*
X109972589Y-77999221D02*
X109649340Y-78322470D01*
X109810964Y-78160845D02*
X109245279Y-77595160D01*
X109272216Y-77729847D01*
X109272216Y-77837597D01*
X109245279Y-77918409D01*
%TO.C,U7*%
X203668380Y-98043904D02*
X204477904Y-98043904D01*
X204573142Y-97996285D01*
X204620761Y-97948666D01*
X204668380Y-97853428D01*
X204668380Y-97662952D01*
X204620761Y-97567714D01*
X204573142Y-97520095D01*
X204477904Y-97472476D01*
X203668380Y-97472476D01*
X203668380Y-97091523D02*
X203668380Y-96424857D01*
X204668380Y-96853428D01*
%TO.C,U6*%
X195142380Y-89661904D02*
X195951904Y-89661904D01*
X196047142Y-89614285D01*
X196094761Y-89566666D01*
X196142380Y-89471428D01*
X196142380Y-89280952D01*
X196094761Y-89185714D01*
X196047142Y-89138095D01*
X195951904Y-89090476D01*
X195142380Y-89090476D01*
X195142380Y-88185714D02*
X195142380Y-88376190D01*
X195190000Y-88471428D01*
X195237619Y-88519047D01*
X195380476Y-88614285D01*
X195570952Y-88661904D01*
X195951904Y-88661904D01*
X196047142Y-88614285D01*
X196094761Y-88566666D01*
X196142380Y-88471428D01*
X196142380Y-88280952D01*
X196094761Y-88185714D01*
X196047142Y-88138095D01*
X195951904Y-88090476D01*
X195713809Y-88090476D01*
X195618571Y-88138095D01*
X195570952Y-88185714D01*
X195523333Y-88280952D01*
X195523333Y-88471428D01*
X195570952Y-88566666D01*
X195618571Y-88614285D01*
X195713809Y-88661904D01*
%TO.C,U5*%
X184658095Y-101052380D02*
X184658095Y-101861904D01*
X184705714Y-101957142D01*
X184753333Y-102004761D01*
X184848571Y-102052380D01*
X185039047Y-102052380D01*
X185134285Y-102004761D01*
X185181904Y-101957142D01*
X185229523Y-101861904D01*
X185229523Y-101052380D01*
X186181904Y-101052380D02*
X185705714Y-101052380D01*
X185658095Y-101528571D01*
X185705714Y-101480952D01*
X185800952Y-101433333D01*
X186039047Y-101433333D01*
X186134285Y-101480952D01*
X186181904Y-101528571D01*
X186229523Y-101623809D01*
X186229523Y-101861904D01*
X186181904Y-101957142D01*
X186134285Y-102004761D01*
X186039047Y-102052380D01*
X185800952Y-102052380D01*
X185705714Y-102004761D01*
X185658095Y-101957142D01*
%TO.C,R2*%
X203017380Y-91606666D02*
X202541190Y-91940000D01*
X203017380Y-92178095D02*
X202017380Y-92178095D01*
X202017380Y-91797142D01*
X202065000Y-91701904D01*
X202112619Y-91654285D01*
X202207857Y-91606666D01*
X202350714Y-91606666D01*
X202445952Y-91654285D01*
X202493571Y-91701904D01*
X202541190Y-91797142D01*
X202541190Y-92178095D01*
X202112619Y-91225714D02*
X202065000Y-91178095D01*
X202017380Y-91082857D01*
X202017380Y-90844761D01*
X202065000Y-90749523D01*
X202112619Y-90701904D01*
X202207857Y-90654285D01*
X202303095Y-90654285D01*
X202445952Y-90701904D01*
X203017380Y-91273333D01*
X203017380Y-90654285D01*
%TO.C,R1*%
X152202380Y-58586666D02*
X151726190Y-58920000D01*
X152202380Y-59158095D02*
X151202380Y-59158095D01*
X151202380Y-58777142D01*
X151250000Y-58681904D01*
X151297619Y-58634285D01*
X151392857Y-58586666D01*
X151535714Y-58586666D01*
X151630952Y-58634285D01*
X151678571Y-58681904D01*
X151726190Y-58777142D01*
X151726190Y-59158095D01*
X152202380Y-57634285D02*
X152202380Y-58205714D01*
X152202380Y-57920000D02*
X151202380Y-57920000D01*
X151345238Y-58015238D01*
X151440476Y-58110476D01*
X151488095Y-58205714D01*
%TO.C,J10*%
X189690476Y-46315380D02*
X189690476Y-47029666D01*
X189642857Y-47172523D01*
X189547619Y-47267761D01*
X189404761Y-47315380D01*
X189309523Y-47315380D01*
X190690476Y-47315380D02*
X190119047Y-47315380D01*
X190404761Y-47315380D02*
X190404761Y-46315380D01*
X190309523Y-46458238D01*
X190214285Y-46553476D01*
X190119047Y-46601095D01*
X191309523Y-46315380D02*
X191404761Y-46315380D01*
X191500000Y-46363000D01*
X191547619Y-46410619D01*
X191595238Y-46505857D01*
X191642857Y-46696333D01*
X191642857Y-46934428D01*
X191595238Y-47124904D01*
X191547619Y-47220142D01*
X191500000Y-47267761D01*
X191404761Y-47315380D01*
X191309523Y-47315380D01*
X191214285Y-47267761D01*
X191166666Y-47220142D01*
X191119047Y-47124904D01*
X191071428Y-46934428D01*
X191071428Y-46696333D01*
X191119047Y-46505857D01*
X191166666Y-46410619D01*
X191214285Y-46363000D01*
X191309523Y-46315380D01*
%TO.C,J9*%
X193976666Y-91102380D02*
X193976666Y-91816666D01*
X193929047Y-91959523D01*
X193833809Y-92054761D01*
X193690952Y-92102380D01*
X193595714Y-92102380D01*
X194500476Y-92102380D02*
X194690952Y-92102380D01*
X194786190Y-92054761D01*
X194833809Y-92007142D01*
X194929047Y-91864285D01*
X194976666Y-91673809D01*
X194976666Y-91292857D01*
X194929047Y-91197619D01*
X194881428Y-91150000D01*
X194786190Y-91102380D01*
X194595714Y-91102380D01*
X194500476Y-91150000D01*
X194452857Y-91197619D01*
X194405238Y-91292857D01*
X194405238Y-91530952D01*
X194452857Y-91626190D01*
X194500476Y-91673809D01*
X194595714Y-91721428D01*
X194786190Y-91721428D01*
X194881428Y-91673809D01*
X194929047Y-91626190D01*
X194976666Y-91530952D01*
%TO.C,J8*%
X176196666Y-91102380D02*
X176196666Y-91816666D01*
X176149047Y-91959523D01*
X176053809Y-92054761D01*
X175910952Y-92102380D01*
X175815714Y-92102380D01*
X176815714Y-91530952D02*
X176720476Y-91483333D01*
X176672857Y-91435714D01*
X176625238Y-91340476D01*
X176625238Y-91292857D01*
X176672857Y-91197619D01*
X176720476Y-91150000D01*
X176815714Y-91102380D01*
X177006190Y-91102380D01*
X177101428Y-91150000D01*
X177149047Y-91197619D01*
X177196666Y-91292857D01*
X177196666Y-91340476D01*
X177149047Y-91435714D01*
X177101428Y-91483333D01*
X177006190Y-91530952D01*
X176815714Y-91530952D01*
X176720476Y-91578571D01*
X176672857Y-91626190D01*
X176625238Y-91721428D01*
X176625238Y-91911904D01*
X176672857Y-92007142D01*
X176720476Y-92054761D01*
X176815714Y-92102380D01*
X177006190Y-92102380D01*
X177101428Y-92054761D01*
X177149047Y-92007142D01*
X177196666Y-91911904D01*
X177196666Y-91721428D01*
X177149047Y-91626190D01*
X177101428Y-91578571D01*
X177006190Y-91530952D01*
%TO.C,J3*%
X138096666Y-93432380D02*
X138096666Y-94146666D01*
X138049047Y-94289523D01*
X137953809Y-94384761D01*
X137810952Y-94432380D01*
X137715714Y-94432380D01*
X138477619Y-93432380D02*
X139096666Y-93432380D01*
X138763333Y-93813333D01*
X138906190Y-93813333D01*
X139001428Y-93860952D01*
X139049047Y-93908571D01*
X139096666Y-94003809D01*
X139096666Y-94241904D01*
X139049047Y-94337142D01*
X139001428Y-94384761D01*
X138906190Y-94432380D01*
X138620476Y-94432380D01*
X138525238Y-94384761D01*
X138477619Y-94337142D01*
%TO.C,J1*%
X105076666Y-93432380D02*
X105076666Y-94146666D01*
X105029047Y-94289523D01*
X104933809Y-94384761D01*
X104790952Y-94432380D01*
X104695714Y-94432380D01*
X106076666Y-94432380D02*
X105505238Y-94432380D01*
X105790952Y-94432380D02*
X105790952Y-93432380D01*
X105695714Y-93575238D01*
X105600476Y-93670476D01*
X105505238Y-93718095D01*
%TO.C,FB1*%
X176966666Y-78414571D02*
X176633333Y-78414571D01*
X176633333Y-78938380D02*
X176633333Y-77938380D01*
X177109523Y-77938380D01*
X177823809Y-78414571D02*
X177966666Y-78462190D01*
X178014285Y-78509809D01*
X178061904Y-78605047D01*
X178061904Y-78747904D01*
X178014285Y-78843142D01*
X177966666Y-78890761D01*
X177871428Y-78938380D01*
X177490476Y-78938380D01*
X177490476Y-77938380D01*
X177823809Y-77938380D01*
X177919047Y-77986000D01*
X177966666Y-78033619D01*
X178014285Y-78128857D01*
X178014285Y-78224095D01*
X177966666Y-78319333D01*
X177919047Y-78366952D01*
X177823809Y-78414571D01*
X177490476Y-78414571D01*
X179014285Y-78938380D02*
X178442857Y-78938380D01*
X178728571Y-78938380D02*
X178728571Y-77938380D01*
X178633333Y-78081238D01*
X178538095Y-78176476D01*
X178442857Y-78224095D01*
%TO.C,C8*%
X204827142Y-106906666D02*
X204874761Y-106954285D01*
X204922380Y-107097142D01*
X204922380Y-107192380D01*
X204874761Y-107335238D01*
X204779523Y-107430476D01*
X204684285Y-107478095D01*
X204493809Y-107525714D01*
X204350952Y-107525714D01*
X204160476Y-107478095D01*
X204065238Y-107430476D01*
X203970000Y-107335238D01*
X203922380Y-107192380D01*
X203922380Y-107097142D01*
X203970000Y-106954285D01*
X204017619Y-106906666D01*
X204350952Y-106335238D02*
X204303333Y-106430476D01*
X204255714Y-106478095D01*
X204160476Y-106525714D01*
X204112857Y-106525714D01*
X204017619Y-106478095D01*
X203970000Y-106430476D01*
X203922380Y-106335238D01*
X203922380Y-106144761D01*
X203970000Y-106049523D01*
X204017619Y-106001904D01*
X204112857Y-105954285D01*
X204160476Y-105954285D01*
X204255714Y-106001904D01*
X204303333Y-106049523D01*
X204350952Y-106144761D01*
X204350952Y-106335238D01*
X204398571Y-106430476D01*
X204446190Y-106478095D01*
X204541428Y-106525714D01*
X204731904Y-106525714D01*
X204827142Y-106478095D01*
X204874761Y-106430476D01*
X204922380Y-106335238D01*
X204922380Y-106144761D01*
X204874761Y-106049523D01*
X204827142Y-106001904D01*
X204731904Y-105954285D01*
X204541428Y-105954285D01*
X204446190Y-106001904D01*
X204398571Y-106049523D01*
X204350952Y-106144761D01*
%TO.C,C7*%
X191603333Y-84177142D02*
X191555714Y-84224761D01*
X191412857Y-84272380D01*
X191317619Y-84272380D01*
X191174761Y-84224761D01*
X191079523Y-84129523D01*
X191031904Y-84034285D01*
X190984285Y-83843809D01*
X190984285Y-83700952D01*
X191031904Y-83510476D01*
X191079523Y-83415238D01*
X191174761Y-83320000D01*
X191317619Y-83272380D01*
X191412857Y-83272380D01*
X191555714Y-83320000D01*
X191603333Y-83367619D01*
X191936666Y-83272380D02*
X192603333Y-83272380D01*
X192174761Y-84272380D01*
%TO.C,C6*%
X194143333Y-59031142D02*
X194095714Y-59078761D01*
X193952857Y-59126380D01*
X193857619Y-59126380D01*
X193714761Y-59078761D01*
X193619523Y-58983523D01*
X193571904Y-58888285D01*
X193524285Y-58697809D01*
X193524285Y-58554952D01*
X193571904Y-58364476D01*
X193619523Y-58269238D01*
X193714761Y-58174000D01*
X193857619Y-58126380D01*
X193952857Y-58126380D01*
X194095714Y-58174000D01*
X194143333Y-58221619D01*
X195000476Y-58126380D02*
X194810000Y-58126380D01*
X194714761Y-58174000D01*
X194667142Y-58221619D01*
X194571904Y-58364476D01*
X194524285Y-58554952D01*
X194524285Y-58935904D01*
X194571904Y-59031142D01*
X194619523Y-59078761D01*
X194714761Y-59126380D01*
X194905238Y-59126380D01*
X195000476Y-59078761D01*
X195048095Y-59031142D01*
X195095714Y-58935904D01*
X195095714Y-58697809D01*
X195048095Y-58602571D01*
X195000476Y-58554952D01*
X194905238Y-58507333D01*
X194714761Y-58507333D01*
X194619523Y-58554952D01*
X194571904Y-58602571D01*
X194524285Y-58697809D01*
%TO.C,C5*%
X191603333Y-56237142D02*
X191555714Y-56284761D01*
X191412857Y-56332380D01*
X191317619Y-56332380D01*
X191174761Y-56284761D01*
X191079523Y-56189523D01*
X191031904Y-56094285D01*
X190984285Y-55903809D01*
X190984285Y-55760952D01*
X191031904Y-55570476D01*
X191079523Y-55475238D01*
X191174761Y-55380000D01*
X191317619Y-55332380D01*
X191412857Y-55332380D01*
X191555714Y-55380000D01*
X191603333Y-55427619D01*
X192508095Y-55332380D02*
X192031904Y-55332380D01*
X191984285Y-55808571D01*
X192031904Y-55760952D01*
X192127142Y-55713333D01*
X192365238Y-55713333D01*
X192460476Y-55760952D01*
X192508095Y-55808571D01*
X192555714Y-55903809D01*
X192555714Y-56141904D01*
X192508095Y-56237142D01*
X192460476Y-56284761D01*
X192365238Y-56332380D01*
X192127142Y-56332380D01*
X192031904Y-56284761D01*
X191984285Y-56237142D01*
%TO.C,C4*%
X199747142Y-115482666D02*
X199794761Y-115530285D01*
X199842380Y-115673142D01*
X199842380Y-115768380D01*
X199794761Y-115911238D01*
X199699523Y-116006476D01*
X199604285Y-116054095D01*
X199413809Y-116101714D01*
X199270952Y-116101714D01*
X199080476Y-116054095D01*
X198985238Y-116006476D01*
X198890000Y-115911238D01*
X198842380Y-115768380D01*
X198842380Y-115673142D01*
X198890000Y-115530285D01*
X198937619Y-115482666D01*
X199175714Y-114625523D02*
X199842380Y-114625523D01*
X198794761Y-114863619D02*
X199509047Y-115101714D01*
X199509047Y-114482666D01*
%TO.C,C3*%
X197207142Y-112942666D02*
X197254761Y-112990285D01*
X197302380Y-113133142D01*
X197302380Y-113228380D01*
X197254761Y-113371238D01*
X197159523Y-113466476D01*
X197064285Y-113514095D01*
X196873809Y-113561714D01*
X196730952Y-113561714D01*
X196540476Y-113514095D01*
X196445238Y-113466476D01*
X196350000Y-113371238D01*
X196302380Y-113228380D01*
X196302380Y-113133142D01*
X196350000Y-112990285D01*
X196397619Y-112942666D01*
X196302380Y-112609333D02*
X196302380Y-111990285D01*
X196683333Y-112323619D01*
X196683333Y-112180761D01*
X196730952Y-112085523D01*
X196778571Y-112037904D01*
X196873809Y-111990285D01*
X197111904Y-111990285D01*
X197207142Y-112037904D01*
X197254761Y-112085523D01*
X197302380Y-112180761D01*
X197302380Y-112466476D01*
X197254761Y-112561714D01*
X197207142Y-112609333D01*
%TO.C,C2*%
X177693333Y-91797142D02*
X177645714Y-91844761D01*
X177502857Y-91892380D01*
X177407619Y-91892380D01*
X177264761Y-91844761D01*
X177169523Y-91749523D01*
X177121904Y-91654285D01*
X177074285Y-91463809D01*
X177074285Y-91320952D01*
X177121904Y-91130476D01*
X177169523Y-91035238D01*
X177264761Y-90940000D01*
X177407619Y-90892380D01*
X177502857Y-90892380D01*
X177645714Y-90940000D01*
X177693333Y-90987619D01*
X178074285Y-90987619D02*
X178121904Y-90940000D01*
X178217142Y-90892380D01*
X178455238Y-90892380D01*
X178550476Y-90940000D01*
X178598095Y-90987619D01*
X178645714Y-91082857D01*
X178645714Y-91178095D01*
X178598095Y-91320952D01*
X178026666Y-91892380D01*
X178645714Y-91892380D01*
D11*
%TO.C,U4*%
X149745000Y-92650000D02*
X149745000Y-123250000D01*
X165155000Y-123310000D02*
X165155000Y-92590000D01*
X147255000Y-92590000D02*
X147255000Y-123310000D01*
X162665000Y-123250000D02*
X162665000Y-92650000D01*
X149745000Y-123250000D02*
X162665000Y-123250000D01*
X162665000Y-92650000D02*
X157205000Y-92650000D01*
X147255000Y-123310000D02*
X165155000Y-123310000D01*
X165155000Y-92590000D02*
X147255000Y-92590000D01*
X155205000Y-92650000D02*
X149745000Y-92650000D01*
X155205000Y-92650000D02*
G75*
G03*
X157205000Y-92650000I1000000J0D01*
G01*
%TO.C,C1*%
X158060000Y-92860000D02*
X162100000Y-92860000D01*
X158060000Y-90020000D02*
X158060000Y-92860000D01*
X162100000Y-92860000D02*
X162100000Y-90020000D01*
X157370000Y-91440000D02*
X158060000Y-91440000D01*
X162100000Y-90020000D02*
X158060000Y-90020000D01*
X162790000Y-91440000D02*
X162100000Y-91440000D01*
%TO.C,U2*%
X163900000Y-78630000D02*
X153620000Y-78630000D01*
X161410000Y-88970000D02*
X161410000Y-78690000D01*
X161410000Y-78690000D02*
X159760000Y-78690000D01*
X157760000Y-78690000D02*
X156110000Y-78690000D01*
X153620000Y-78630000D02*
X153620000Y-89030000D01*
X156110000Y-78690000D02*
X156110000Y-88970000D01*
X153620000Y-89030000D02*
X163900000Y-89030000D01*
X156110000Y-88970000D02*
X161410000Y-88970000D01*
X163900000Y-89030000D02*
X163900000Y-78630000D01*
X157760000Y-78690000D02*
G75*
G03*
X159760000Y-78690000I1000000J0D01*
G01*
%TO.C,J7*%
X170240000Y-95250000D02*
X170240000Y-123250000D01*
X167580000Y-123250000D02*
X170240000Y-123250000D01*
X167580000Y-95250000D02*
X167580000Y-123250000D01*
X167580000Y-93980000D02*
X167580000Y-92650000D01*
X167580000Y-92650000D02*
X168910000Y-92650000D01*
X167580000Y-95250000D02*
X170240000Y-95250000D01*
%TO.C,J6*%
X144840000Y-95250000D02*
X144840000Y-123250000D01*
X142180000Y-123250000D02*
X144840000Y-123250000D01*
X142180000Y-95250000D02*
X142180000Y-123250000D01*
X142180000Y-93980000D02*
X142180000Y-92650000D01*
X142180000Y-92650000D02*
X143510000Y-92650000D01*
X142180000Y-95250000D02*
X144840000Y-95250000D01*
%TO.C,J2*%
X107188000Y-97790000D02*
X135890000Y-97790000D01*
X137414000Y-99314000D02*
X137414000Y-121666000D01*
X104140000Y-104648000D02*
X104140000Y-113538000D01*
X135890000Y-123190000D02*
X107188000Y-123190000D01*
X105664000Y-121666000D02*
X105664000Y-99314000D01*
X137414000Y-121158000D02*
X134366000Y-121158000D01*
X134366000Y-121158000D02*
X134366000Y-99822000D01*
X134366000Y-99822000D02*
X137414000Y-99822000D01*
X137414000Y-99822000D02*
X137414000Y-121158000D01*
X104140000Y-113538000D02*
G75*
G03*
X105156000Y-114554000I1016002J2D01*
G01*
X135890000Y-123190000D02*
G75*
G03*
X137414000Y-121666000I1J1523999D01*
G01*
X107188000Y-97790000D02*
G75*
G03*
X105664000Y-99314000I-1J-1523999D01*
G01*
X105156000Y-103632000D02*
G75*
G03*
X104140000Y-104648000I2J-1016002D01*
G01*
X105664000Y-121666000D02*
G75*
G03*
X107188000Y-123190000I1523999J-1D01*
G01*
X137414000Y-99314000D02*
G75*
G03*
X135890000Y-97790000I-1524000J0D01*
G01*
%TO.C,J4*%
X142185000Y-49530000D02*
X142185000Y-72450000D01*
X142185000Y-72450000D02*
X144845000Y-72450000D01*
X143515000Y-46930000D02*
X144845000Y-46930000D01*
X144845000Y-49530000D02*
X144845000Y-72450000D01*
X142185000Y-49530000D02*
X144845000Y-49530000D01*
X144845000Y-46930000D02*
X144845000Y-48260000D01*
%TO.C,U3*%
X170185000Y-40640000D02*
X170185000Y-76200000D01*
X148595000Y-39370000D02*
X168915000Y-39370000D01*
X167645000Y-72390000D02*
X170245000Y-72390000D01*
X147325000Y-72390000D02*
X147265000Y-46870000D01*
X149865000Y-46870000D02*
X149865000Y-72390000D01*
X147325000Y-76200000D02*
X147325000Y-40640000D01*
X149865000Y-72390000D02*
X147325000Y-72390000D01*
X170245000Y-72390000D02*
X170245000Y-46870000D01*
X167645000Y-46870000D02*
X170245000Y-46870000D01*
X167645000Y-46870000D02*
X167645000Y-72390000D01*
X168915000Y-77470000D02*
X148595000Y-77470000D01*
X149865000Y-46870000D02*
X147265000Y-46870000D01*
X154818000Y-39370000D02*
X162692000Y-39370000D01*
X162692000Y-39370000D02*
X162692000Y-44958000D01*
X162692000Y-44958000D02*
X154818000Y-44958000D01*
X154818000Y-44958000D02*
X154818000Y-39370000D01*
X148595000Y-39370000D02*
G75*
G03*
X147325000Y-40640000I-1J-1269999D01*
G01*
X147325000Y-76200000D02*
G75*
G03*
X148595000Y-77470000I1269999J-1D01*
G01*
X168915000Y-77470000D02*
G75*
G03*
X170185000Y-76200000I0J1270000D01*
G01*
X170185000Y-40640000D02*
G75*
G03*
X168915000Y-39370000I-1270000J0D01*
G01*
%TO.C,J5*%
X172665000Y-49530000D02*
X172665000Y-72450000D01*
X172665000Y-72450000D02*
X175325000Y-72450000D01*
X173995000Y-46930000D02*
X175325000Y-46930000D01*
X175325000Y-49530000D02*
X175325000Y-72450000D01*
X172665000Y-49530000D02*
X175325000Y-49530000D01*
X175325000Y-46930000D02*
X175325000Y-48260000D01*
%TO.C,U1*%
X132420000Y-82410000D02*
X132420000Y-82810000D01*
X111420000Y-49310000D02*
X111420000Y-49710000D01*
X132420000Y-41810000D02*
X132420000Y-42110000D01*
X111420000Y-69610000D02*
X111420000Y-70010000D01*
X132420000Y-49310000D02*
X132420000Y-49710000D01*
X132420000Y-79810000D02*
X132420000Y-80210000D01*
X132420000Y-87410000D02*
X132420000Y-87810000D01*
X111420000Y-41810000D02*
X111420000Y-42110000D01*
X132420000Y-59510000D02*
X132420000Y-59910000D01*
X132420000Y-84910000D02*
X132420000Y-85310000D01*
X132420000Y-56910000D02*
X132420000Y-57310000D01*
X132420000Y-74710000D02*
X132420000Y-75110000D01*
X111420000Y-79810000D02*
X111420000Y-80210000D01*
X111420000Y-84910000D02*
X111420000Y-85310000D01*
X111420000Y-67110000D02*
X111420000Y-67510000D01*
X111420000Y-56910000D02*
X111420000Y-57310000D01*
X132420000Y-69610000D02*
X132420000Y-70010000D01*
X111420000Y-77310000D02*
X111420000Y-77710000D01*
X132420000Y-54410000D02*
X132420000Y-54810000D01*
X123020000Y-92810000D02*
X123420000Y-92810000D01*
X111420000Y-82410000D02*
X111420000Y-82810000D01*
X132420000Y-46810000D02*
X132420000Y-47210000D01*
X111420000Y-54410000D02*
X111420000Y-54810000D01*
X120420000Y-92810000D02*
X120820000Y-92810000D01*
X111420000Y-72210000D02*
X111420000Y-72610000D01*
X111420000Y-59510000D02*
X111420000Y-59910000D01*
X111420000Y-44477000D02*
X114427000Y-44477000D01*
X111420000Y-74710000D02*
X111420000Y-75110000D01*
X132420000Y-51910000D02*
X132420000Y-52310000D01*
X132420000Y-92810000D02*
X125620000Y-92810000D01*
X132420000Y-64610000D02*
X132420000Y-65010000D01*
X111420000Y-62010000D02*
X111420000Y-62410000D01*
X111420000Y-51910000D02*
X111420000Y-52310000D01*
X111420000Y-90010000D02*
X111420000Y-90410000D01*
X111420000Y-64610000D02*
X111420000Y-65010000D01*
X111420000Y-87410000D02*
X111420000Y-87810000D01*
X111420000Y-41810000D02*
X132420000Y-41810000D01*
X132420000Y-62010000D02*
X132420000Y-62410000D01*
X114427000Y-44477000D02*
X114427000Y-41810000D01*
X132420000Y-44210000D02*
X132420000Y-44610000D01*
X132420000Y-90010000D02*
X132420000Y-90410000D01*
X132420000Y-67110000D02*
X132420000Y-67510000D01*
X118220000Y-92810000D02*
X111420000Y-92810000D01*
X132420000Y-77310000D02*
X132420000Y-77710000D01*
X111420000Y-46810000D02*
X111420000Y-47210000D01*
X111420000Y-44210000D02*
X111420000Y-44610000D01*
X132420000Y-72210000D02*
X132420000Y-72610000D01*
%TO.C,U7*%
X205390000Y-114140000D02*
X206280000Y-114140000D01*
X208630000Y-91600000D02*
X207980000Y-91600000D01*
X208630000Y-114140000D02*
X208630000Y-91600000D01*
X208630000Y-114140000D02*
X207680000Y-114140000D01*
X205390000Y-91600000D02*
X205980000Y-91600000D01*
X205390000Y-114140000D02*
X205390000Y-91600000D01*
X205390000Y-93980000D02*
X208630000Y-93980000D01*
%TO.C,U6*%
X199680000Y-80170000D02*
X198790000Y-80170000D01*
X196440000Y-102710000D02*
X197090000Y-102710000D01*
X196440000Y-80170000D02*
X196440000Y-102710000D01*
X196440000Y-80170000D02*
X197390000Y-80170000D01*
X199680000Y-102710000D02*
X199090000Y-102710000D01*
X199680000Y-80170000D02*
X199680000Y-102710000D01*
X199680000Y-100330000D02*
X196440000Y-100330000D01*
%TO.C,U5*%
X184420000Y-92650000D02*
G75*
G03*
X186420000Y-92650000I1000000J0D01*
G01*
X180280000Y-113150000D02*
X190560000Y-113150000D01*
X180280000Y-92590000D02*
X180280000Y-113150000D01*
X190560000Y-113150000D02*
X190560000Y-92590000D01*
X182770000Y-92650000D02*
X182770000Y-113090000D01*
X188070000Y-92650000D02*
X186420000Y-92650000D01*
X184420000Y-92650000D02*
X182770000Y-92650000D01*
X188070000Y-113090000D02*
X188070000Y-92650000D01*
X190560000Y-92590000D02*
X180280000Y-92590000D01*
X182770000Y-113090000D02*
X188070000Y-113090000D01*
%TO.C,R2*%
X199680000Y-93360000D02*
X199680000Y-89520000D01*
X201520000Y-93360000D02*
X201520000Y-89520000D01*
%TO.C,R1*%
X154590000Y-60340000D02*
X154590000Y-56500000D01*
X152750000Y-60340000D02*
X152750000Y-56500000D01*
%TO.C,J10*%
X179832000Y-40005000D02*
X198628000Y-40005000D01*
X198628000Y-40005000D02*
X198628000Y-52959000D01*
X198628000Y-52959000D02*
X179832000Y-52959000D01*
X179832000Y-52959000D02*
X179832000Y-40005000D01*
X196088000Y-40005000D02*
X191008000Y-40005000D01*
X191008000Y-40005000D02*
X191008000Y-38481000D01*
X191008000Y-38481000D02*
X196088000Y-38481000D01*
X196088000Y-38481000D02*
X196088000Y-40005000D01*
%TO.C,J9*%
X192980000Y-95250000D02*
X195640000Y-95250000D01*
X192980000Y-113090000D02*
X195640000Y-113090000D01*
X192980000Y-95250000D02*
X192980000Y-113090000D01*
X192980000Y-93980000D02*
X192980000Y-92650000D01*
X195640000Y-95250000D02*
X195640000Y-113090000D01*
X192980000Y-92650000D02*
X194310000Y-92650000D01*
%TO.C,J8*%
X175200000Y-95250000D02*
X177860000Y-95250000D01*
X175200000Y-113090000D02*
X177860000Y-113090000D01*
X175200000Y-95250000D02*
X175200000Y-113090000D01*
X175200000Y-93980000D02*
X175200000Y-92650000D01*
X177860000Y-95250000D02*
X177860000Y-113090000D01*
X175200000Y-92650000D02*
X176530000Y-92650000D01*
%TO.C,J3*%
X137100000Y-44450000D02*
X137100000Y-92770000D01*
X139760000Y-41850000D02*
X139760000Y-43180000D01*
X137100000Y-44450000D02*
X139760000Y-44450000D01*
X138430000Y-41850000D02*
X139760000Y-41850000D01*
X137100000Y-92770000D02*
X139760000Y-92770000D01*
X139760000Y-44450000D02*
X139760000Y-92770000D01*
%TO.C,J1*%
X104080000Y-44450000D02*
X104080000Y-92770000D01*
X106740000Y-41850000D02*
X106740000Y-43180000D01*
X104080000Y-44450000D02*
X106740000Y-44450000D01*
X105410000Y-41850000D02*
X106740000Y-41850000D01*
X104080000Y-92770000D02*
X106740000Y-92770000D01*
X106740000Y-44450000D02*
X106740000Y-92770000D01*
%TO.C,FB1*%
X180848000Y-83820000D02*
G75*
G03*
X180848000Y-81280000I-508000J1270000D01*
G01*
X174752000Y-81280000D02*
G75*
G03*
X174752000Y-83820000I508000J-1270000D01*
G01*
X175513999Y-84836001D02*
G75*
G03*
X180324465Y-84569572I2286001J2286001D01*
G01*
X180340000Y-80518000D02*
G75*
G03*
X175499932Y-80249932I-2540000J-2032000D01*
G01*
%TO.C,C8*%
X203050000Y-104720000D02*
X203050000Y-108760000D01*
X205890000Y-104720000D02*
X203050000Y-104720000D01*
X203050000Y-108760000D02*
X205890000Y-108760000D01*
X204470000Y-104030000D02*
X204470000Y-104720000D01*
X205890000Y-108760000D02*
X205890000Y-104720000D01*
X204470000Y-109450000D02*
X204470000Y-108760000D01*
%TO.C,C7*%
X189750000Y-85240000D02*
X193790000Y-85240000D01*
X189750000Y-82400000D02*
X189750000Y-85240000D01*
X193790000Y-85240000D02*
X193790000Y-82400000D01*
X189060000Y-83820000D02*
X189750000Y-83820000D01*
X193790000Y-82400000D02*
X189750000Y-82400000D01*
X194480000Y-83820000D02*
X193790000Y-83820000D01*
%TO.C,C6*%
X197020000Y-58420000D02*
X196330000Y-58420000D01*
X196330000Y-57000000D02*
X192290000Y-57000000D01*
X191600000Y-58420000D02*
X192290000Y-58420000D01*
X196330000Y-59840000D02*
X196330000Y-57000000D01*
X192290000Y-57000000D02*
X192290000Y-59840000D01*
X192290000Y-59840000D02*
X196330000Y-59840000D01*
%TO.C,C5*%
X194480000Y-55880000D02*
X193790000Y-55880000D01*
X193790000Y-54460000D02*
X189750000Y-54460000D01*
X189060000Y-55880000D02*
X189750000Y-55880000D01*
X193790000Y-57300000D02*
X193790000Y-54460000D01*
X189750000Y-54460000D02*
X189750000Y-57300000D01*
X189750000Y-57300000D02*
X193790000Y-57300000D01*
%TO.C,C4*%
X199390000Y-112800000D02*
X199390000Y-113490000D01*
X197970000Y-113490000D02*
X197970000Y-117530000D01*
X199390000Y-118220000D02*
X199390000Y-117530000D01*
X200810000Y-113490000D02*
X197970000Y-113490000D01*
X197970000Y-117530000D02*
X200810000Y-117530000D01*
X200810000Y-117530000D02*
X200810000Y-113490000D01*
%TO.C,C3*%
X198270000Y-114990000D02*
X198270000Y-110950000D01*
X195430000Y-114990000D02*
X198270000Y-114990000D01*
X198270000Y-110950000D02*
X195430000Y-110950000D01*
X196850000Y-115680000D02*
X196850000Y-114990000D01*
X195430000Y-110950000D02*
X195430000Y-114990000D01*
X196850000Y-110260000D02*
X196850000Y-110950000D01*
%TO.C,C2*%
X180570000Y-91440000D02*
X179880000Y-91440000D01*
X179880000Y-90020000D02*
X175840000Y-90020000D01*
X175150000Y-91440000D02*
X175840000Y-91440000D01*
X179880000Y-92860000D02*
X179880000Y-90020000D01*
X175840000Y-90020000D02*
X175840000Y-92860000D01*
X175840000Y-92860000D02*
X179880000Y-92860000D01*
%TD*%
M02*
